<svg width="24" height="24" viewBox="0 0 24 24" fill="none" xmlns="http://www.w3.org/2000/svg">
    <path d="M9.71736 6.8868C10.1454 6.45518 10.1454 5.75535 9.71736 5.32372C9.28928 4.89209 8.59534 4.89209 8.16721 5.32372L2.32106 11.2185C2.10701 11.4343 2 11.7172 2 12C2 12.1499 2.02958 12.2928 2.08318 12.4231C2.13667 12.5534 2.21596 12.6756 2.32106 12.7815L8.16721 18.6763C8.59534 19.1079 9.28928 19.1079 9.71736 18.6763C10.1454 18.2446 10.1454 17.5449 9.71736 17.1133L5.7425 13.1053H19.9038C20.5092 13.1053 21 12.6104 21 12C21 11.3896 20.5092 10.8948 19.9038 10.8948H5.7425L9.71736 6.8868Z"
          fill="#AFB7C3"/>
</svg>
