<svg width="24" height="25" viewBox="0 0 24 25" fill="none" xmlns="http://www.w3.org/2000/svg">
<path d="M17.8333 3H6.16667C5.062 3.00132 4.00296 3.44073 3.22185 4.22185C2.44073 5.00296 2.00132 6.062 2 7.16667L2 17.1667C2.00132 18.2713 2.44073 19.3304 3.22185 20.1115C4.00296 20.8926 5.062 21.332 6.16667 21.3333H17.8333C18.938 21.332 19.997 20.8926 20.7782 20.1115C21.5593 19.3304 21.9987 18.2713 22 17.1667V7.16667C21.9987 6.062 21.5593 5.00296 20.7782 4.22185C19.997 3.44073 18.938 3.00132 17.8333 3ZM6.16667 4.66667H17.8333C18.3323 4.66765 18.8196 4.81793 19.2325 5.09817C19.6453 5.37841 19.9649 5.77579 20.15 6.23917L13.7683 12.6217C13.2987 13.0894 12.6628 13.3521 12 13.3521C11.3372 13.3521 10.7013 13.0894 10.2317 12.6217L3.85 6.23917C4.03512 5.77579 4.35468 5.37841 4.76754 5.09817C5.1804 4.81793 5.66768 4.66765 6.16667 4.66667ZM17.8333 19.6667H6.16667C5.50363 19.6667 4.86774 19.4033 4.3989 18.9344C3.93006 18.4656 3.66667 17.8297 3.66667 17.1667V8.41667L9.05333 13.8C9.83552 14.5802 10.8952 15.0184 12 15.0184C13.1048 15.0184 14.1645 14.5802 14.9467 13.8L20.3333 8.41667V17.1667C20.3333 17.8297 20.0699 18.4656 19.6011 18.9344C19.1323 19.4033 18.4964 19.6667 17.8333 19.6667Z" fill="#374957"/>
</svg>
