<svg width="24" height="24" viewBox="0 0 24 24" fill="none" xmlns="http://www.w3.org/2000/svg">
<path fill-rule="evenodd" clip-rule="evenodd" d="M7.19485 10.7378C7.19485 7.81827 9.57005 5.45155 12.5 5.45155C15.4299 5.45155 17.8052 7.81827 17.8052 10.7378C17.8052 13.6573 15.4299 16.024 12.5 16.024C9.57005 16.024 7.19485 13.6573 7.19485 10.7378ZM12.5 7.12088C10.4953 7.12088 8.87016 8.7402 8.87016 10.7378C8.87016 12.7353 10.4953 14.3546 12.5 14.3546C14.5047 14.3546 16.1299 12.7353 16.1299 10.7378C16.1299 8.7402 14.5047 7.12088 12.5 7.12088Z" fill="#374957"/>
<path fill-rule="evenodd" clip-rule="evenodd" d="M3.03378 9.46556C3.42953 4.6817 7.44151 1 12.2588 1H12.7413C17.5586 1 21.5705 4.6817 21.9662 9.46556C22.1789 12.0354 21.3822 14.5871 19.7441 16.5833L14.3909 23.1068C13.4136 24.2977 11.5864 24.2977 10.6091 23.1068L5.25592 16.5833C3.61784 14.5871 2.8212 12.0354 3.03378 9.46556ZM12.2588 2.66933C8.3134 2.66933 5.02754 5.68467 4.70343 9.6027C4.5265 11.7415 5.18953 13.8652 6.55286 15.5266L11.9061 22.0501C12.2131 22.4242 12.7869 22.4242 13.094 22.0501L18.4472 15.5266C19.8105 13.8652 20.4735 11.7415 20.2966 9.6027C19.9725 5.68467 16.6866 2.66933 12.7413 2.66933H12.2588Z" fill="#374957"/>
</svg>
