<svg width="24" height="24" viewBox="0 0 24 24" fill="none" xmlns="http://www.w3.org/2000/svg">
<g clip-path="url(#clip0_9_2571)">
<path d="M3.87084 15.4839H3.0966C2.02766 15.4839 1.16113 14.6174 1.16113 13.5484C1.16113 12.9071 1.68107 12.3871 2.32241 12.3871H3.87079L3.87084 15.4839Z" fill="#DD001B"/>
<path d="M18.5807 0H4.25809L3.85938 0.774188V23.625H22.0645L22.8387 23.2258V4.25808L18.5807 0Z" fill="#ECEAEC"/>
<path d="M4.25759 22.0645V0C3.83004 0 3.4834 0.346594 3.4834 0.774188V23.2258C3.4834 23.6534 3.83004 24 4.25759 24H22.064C22.4916 24 22.8382 23.6534 22.8382 23.2258H5.41887C4.77748 23.2258 4.25759 22.7059 4.25759 22.0645ZM22.8382 4.19161C22.8382 3.9863 22.7567 3.78937 22.6114 3.64416L19.1939 0.226734C19.0487 0.08156 18.8518 1.87938e-06 18.6465 0L18.5801 0V3.87098C18.5801 3.97365 18.6209 4.07211 18.6935 4.1447C18.7661 4.2173 18.8646 4.25808 18.9672 4.25808H22.8382V4.19161Z" fill="#DAD8DB"/>
<path d="M14.3226 14.7097H2.32258C2.18683 14.7097 2.05647 14.6864 1.93534 14.6436L1.5625 15.2656V20.1562C1.5625 20.7976 2.08244 21.3175 2.72378 21.3175H14.3226L15.0968 20.9032V15.4839C15.0968 15.0563 14.7502 14.7097 14.3226 14.7097Z" fill="#EF1842"/>
<path d="M1.93532 14.6436C1.48532 14.4836 1.16113 14.0533 1.16113 13.5484V20.5161C1.16113 21.1575 1.68107 21.6774 2.32241 21.6774H14.3224C14.75 21.6774 15.0966 21.3308 15.0966 20.9032H3.0966C2.45526 20.9032 1.93532 20.3833 1.93532 19.7419V14.6436Z" fill="#DB4655"/>
<path d="M12.2085 17.7773H11.4486V17.0436H12.3075C12.5215 17.0436 12.6946 16.8703 12.6946 16.6565C12.6946 16.4428 12.5215 16.2694 12.3075 16.2694H11.0615C11.0107 16.2694 10.9604 16.2794 10.9134 16.2989C10.8664 16.3183 10.8237 16.3468 10.7878 16.3828C10.7518 16.4187 10.7233 16.4614 10.7039 16.5084C10.6844 16.5553 10.6744 16.6057 10.6744 16.6565V19.7306C10.6744 19.9444 10.8476 20.1177 11.0615 20.1177C11.2755 20.1177 11.4486 19.9444 11.4486 19.7306V18.5516H12.2085C12.4225 18.5516 12.5956 18.3782 12.5956 18.1645C12.5956 17.9507 12.4224 17.7773 12.2085 17.7773ZM5.10878 16.2581H4.24652C4.1956 16.2581 4.14518 16.2682 4.09815 16.2877C4.05112 16.3072 4.0084 16.3358 3.97244 16.3718C3.90021 16.4445 3.85966 16.5427 3.85966 16.6452H3.85938V19.742C3.85938 19.9557 4.03253 20.1291 4.24647 20.1291C4.46041 20.1291 4.63356 19.9557 4.63356 19.742V18.7819C4.80723 18.7809 4.99816 18.7801 5.10873 18.7801C5.81336 18.7801 6.38683 18.2144 6.38683 17.5192C6.38688 16.8238 5.81341 16.2581 5.10878 16.2581ZM5.10878 18.0059C4.95166 18.0061 4.79453 18.0066 4.63741 18.0075C4.63666 17.829 4.63478 17.0323 4.63478 17.0323H5.10883C5.38216 17.0323 5.61273 17.2553 5.61273 17.5192C5.61273 17.783 5.38211 18.0059 5.10878 18.0059ZM8.35488 16.3038H7.50395C7.45305 16.3038 7.40263 16.3138 7.3556 16.3333C7.30857 16.3528 7.26585 16.3814 7.22988 16.4174C7.19391 16.4534 7.1654 16.4962 7.14601 16.5433C7.12662 16.5903 7.11671 16.6408 7.11686 16.6917L7.11911 18.1902C7.11911 18.6081 7.12291 19.6975 7.12291 19.6975C7.12311 19.7484 7.13333 19.7988 7.15298 19.8457C7.17264 19.8926 7.20135 19.9352 7.23747 19.971C7.30996 20.043 7.40793 20.0833 7.51005 20.0833H7.51155C7.51155 20.0833 8.14248 20.0809 8.38666 20.0767C9.2958 20.0606 9.95584 19.2687 9.95584 18.1936C9.9558 17.0633 9.31239 16.3038 8.35488 16.3038ZM8.37302 19.3025C8.26225 19.3043 8.07058 19.3061 7.89597 19.307C7.89484 18.9526 7.89334 18.4457 7.89334 18.1901L7.89184 17.078H8.35492C9.14195 17.078 9.18166 18.0072 9.18166 18.1935C9.18161 18.7385 8.93172 19.2927 8.37302 19.3025Z" fill="white"/>
<path d="M9.27759 13.0951C8.97895 13.0951 8.70904 12.9398 8.51929 12.6466C8.23729 12.2115 8.3114 11.7188 8.72231 11.2946C9.13663 10.8667 9.98451 10.464 11.0048 10.1354C11.3231 9.53546 11.6471 8.83327 11.9499 8.05697C12.1287 7.59825 12.2731 7.18468 12.3888 6.81478C11.8788 5.87991 11.5756 5.00953 11.6562 4.44436C11.7382 3.87089 12.1665 3.54807 12.8031 3.58322C12.9921 3.59344 13.4431 3.69211 13.552 4.38652C13.6351 4.91747 13.4953 5.77575 13.2148 6.75108C13.7455 7.64644 14.4732 8.60546 15.185 9.34149C16.2609 9.27591 17.1726 9.35433 17.6312 9.63103C17.9903 9.84764 18.1313 10.2009 18.0084 10.5757C17.8073 11.1883 17.3216 11.469 16.7076 11.3259C16.1909 11.2053 15.5505 10.7541 14.9011 10.1278C13.8566 10.2196 12.6273 10.4323 11.5488 10.7494C10.905 11.9048 10.209 12.8044 9.62465 13.0278C9.50671 13.073 9.39027 13.0951 9.27759 13.0951ZM9.16874 12.2259C9.23338 12.3253 9.26891 12.3233 9.28555 12.3213C9.53202 12.2962 9.94256 11.8707 10.4113 11.1515C10.1013 11.2844 9.82349 11.4284 9.58987 11.583C9.00393 11.9711 9.12829 12.1628 9.16874 12.2259ZM15.9883 10.0766C16.3191 10.3352 16.6264 10.5119 16.8835 10.5721C17.0842 10.6187 17.1874 10.5949 17.2728 10.3346C17.1587 10.1615 16.6729 10.0783 15.9883 10.0766ZM12.9138 7.68975C12.6548 8.42508 12.3552 9.1455 12.0164 9.84769C12.7418 9.66549 13.5066 9.522 14.2369 9.43092C13.7647 8.89585 13.3085 8.29482 12.9138 7.68975ZM12.7274 4.34161C12.4526 4.34161 12.4383 4.44464 12.4224 4.55349C12.3819 4.83947 12.4825 5.24621 12.6809 5.71514C12.856 4.8795 12.8204 4.43743 12.7354 4.34161H12.7274Z" fill="#EF1842"/>
</g>
<defs>
<clipPath id="clip0_9_2571">
<rect width="24" height="24" fill="white"/>
</clipPath>
</defs>
</svg>
