<svg width="24" height="24" viewBox="0 0 24 24" fill="none" xmlns="http://www.w3.org/2000/svg">
<path d="M15.9996 8.30772V5.30772H7.99956V8.30772H6.49959V4.70757C6.49959 4.45256 6.58621 4.23883 6.75946 4.0664C6.93269 3.89396 7.14735 3.80775 7.40344 3.80775H16.5917C16.852 3.80775 17.0684 3.894 17.2409 4.0665C17.4133 4.239 17.4995 4.45275 17.4995 4.70775V8.30772H15.9996ZM17.8072 12.3077C18.0906 12.3077 18.3281 12.2118 18.5197 12.0202C18.7114 11.8285 18.8072 11.591 18.8072 11.3077C18.8072 11.0243 18.7114 10.7868 18.5197 10.5952C18.3281 10.4035 18.0906 10.3077 17.8072 10.3077C17.5239 10.3077 17.2864 10.4035 17.0947 10.5952C16.9031 10.7868 16.8072 11.0243 16.8072 11.3077C16.8072 11.591 16.9031 11.8285 17.0947 12.0202C17.2864 12.2118 17.5239 12.3077 17.8072 12.3077ZM8.30729 19H15.6918C15.7816 19 15.8553 18.9711 15.913 18.9134C15.9707 18.8557 15.9996 18.782 15.9996 18.6923V14.7307H7.99956V18.6923C7.99956 18.782 8.02841 18.8557 8.08611 18.9134C8.14381 18.9711 8.21754 19 8.30729 19ZM8.30729 20.5C7.81017 20.5 7.38461 20.323 7.03061 19.9689C6.67659 19.6149 6.49959 19.1894 6.49959 18.6923V16.5H3.69191C3.43583 16.5 3.22117 16.4133 3.04794 16.2401C2.8747 16.0669 2.78809 15.8522 2.78809 15.5961V10.8077C2.78809 10.0994 3.03007 9.50561 3.51404 9.02645C3.998 8.5473 4.58934 8.30772 5.28804 8.30772H18.7111C19.4194 8.30772 20.0131 8.5473 20.4923 9.02645C20.9715 9.50561 21.211 10.0994 21.211 10.8077V15.5961C21.211 15.8522 21.1244 16.0669 20.9512 16.2401C20.778 16.4133 20.5633 16.5 20.3072 16.5H17.4995V18.6923C17.4995 19.1894 17.3225 19.6149 16.9685 19.9689C16.6145 20.323 16.189 20.5 15.6918 20.5H8.30729ZM19.7111 15V10.8077C19.7111 10.5243 19.6153 10.2868 19.4236 10.0952C19.2319 9.90351 18.9944 9.80767 18.7111 9.80767H5.28804C5.0047 9.80767 4.7672 9.90351 4.57554 10.0952C4.38387 10.2868 4.28804 10.5243 4.28804 10.8077V15H6.49959V13.2308H17.4995V15H19.7111Z" fill="#009A1C"/>
</svg>
