<svg width="24" height="24" viewBox="0 0 24 24" fill="none" xmlns="http://www.w3.org/2000/svg">
<path d="M18.0011 21.75C17.2375 21.75 16.5881 21.4826 16.0529 20.9479C15.5176 20.4132 15.25 19.7639 15.25 19C15.25 18.8752 15.2599 18.7459 15.2798 18.6121C15.2997 18.4784 15.3295 18.3551 15.3692 18.2423L7.97305 13.9115C7.70895 14.1743 7.40831 14.3798 7.07113 14.5279C6.73394 14.6759 6.37689 14.75 5.99997 14.75C5.23609 14.75 4.58679 14.4827 4.05207 13.9482C3.51736 13.4137 3.25 12.7647 3.25 12.0011C3.25 11.2376 3.51736 10.5881 4.05207 10.0529C4.58679 9.51765 5.23609 9.25002 5.99997 9.25002C6.37689 9.25002 6.73394 9.32406 7.07113 9.47212C7.40831 9.62021 7.70895 9.82566 7.97305 10.0885L15.3692 5.7577C15.3295 5.64488 15.2997 5.5216 15.2798 5.38785C15.2599 5.25411 15.25 5.12483 15.25 5C15.25 4.23611 15.5173 3.58681 16.0518 3.0521C16.5863 2.51738 17.2353 2.25002 17.9989 2.25002C18.7624 2.25002 19.4118 2.51727 19.9471 3.05177C20.4823 3.58627 20.75 4.23531 20.75 4.99887C20.75 5.76244 20.4826 6.41185 19.9479 6.9471C19.4132 7.48235 18.7639 7.74997 18 7.74997C17.6231 7.74997 17.266 7.67594 16.9288 7.52787C16.5916 7.37979 16.291 7.17434 16.0269 6.91152L8.63073 11.2423C8.67048 11.3551 8.70028 11.4782 8.72015 11.6115C8.74002 11.7448 8.74995 11.8736 8.74995 11.998C8.74995 12.1224 8.74002 12.2519 8.72015 12.3865C8.70028 12.5212 8.67048 12.6449 8.63073 12.7577L16.0269 17.0885C16.291 16.8257 16.5916 16.6202 16.9288 16.4721C17.266 16.3241 17.6231 16.25 18 16.25C18.7639 16.25 19.4132 16.5173 19.9479 17.0518C20.4826 17.5863 20.75 18.2353 20.75 18.9989C20.75 19.7624 20.4827 20.4118 19.9482 20.9471C19.4137 21.4823 18.7647 21.75 18.0011 21.75ZM18 6.25002C18.3474 6.25002 18.6426 6.12855 18.8856 5.8856C19.1285 5.64263 19.25 5.34743 19.25 5C19.25 4.65256 19.1285 4.35736 18.8856 4.1144C18.6426 3.87145 18.3474 3.74997 18 3.74997C17.6525 3.74997 17.3573 3.87145 17.1144 4.1144C16.8714 4.35736 16.75 4.65256 16.75 5C16.75 5.34743 16.8714 5.64263 17.1144 5.8856C17.3573 6.12855 17.6525 6.25002 18 6.25002ZM5.99997 13.25C6.34741 13.25 6.64261 13.1285 6.88558 12.8856C7.12853 12.6426 7.25 12.3474 7.25 12C7.25 11.6526 7.12853 11.3574 6.88558 11.1144C6.64261 10.8714 6.34741 10.75 5.99997 10.75C5.65254 10.75 5.35734 10.8714 5.11438 11.1144C4.87143 11.3574 4.74995 11.6526 4.74995 12C4.74995 12.3474 4.87143 12.6426 5.11438 12.8856C5.35734 13.1285 5.65254 13.25 5.99997 13.25ZM18 20.25C18.3474 20.25 18.6426 20.1285 18.8856 19.8856C19.1285 19.6426 19.25 19.3474 19.25 19C19.25 18.6526 19.1285 18.3574 18.8856 18.1144C18.6426 17.8714 18.3474 17.75 18 17.75C17.6525 17.75 17.3573 17.8714 17.1144 18.1144C16.8714 18.3574 16.75 18.6526 16.75 19C16.75 19.3474 16.8714 19.6426 17.1144 19.8856C17.3573 20.1285 17.6525 20.25 18 20.25Z" fill="#404955"/>
</svg>
