<svg width="201" height="200" viewBox="0 0 201 200" fill="none" xmlns="http://www.w3.org/2000/svg">
<path d="M100.501 190.8C149.853 190.8 189.861 167.304 189.861 138.32C189.861 109.336 149.853 85.84 100.501 85.84C51.1485 85.84 11.1406 109.336 11.1406 138.32C11.1406 167.304 51.1485 190.8 100.501 190.8Z" fill="#F5F5F5"/>
<path d="M38.0998 138.36C43.2598 141.36 43.2598 146.2 38.0998 149.16C32.9398 152.12 24.5398 152.16 19.3798 149.16C14.2198 146.16 14.2198 141.32 19.3798 138.36C24.5398 135.36 32.8998 135.36 38.0998 138.36Z" fill="#E0E0E0"/>
<path d="M49.4192 145.24L96.3392 172.32C97.2992 172.88 98.8592 172.88 99.8192 172.32L179.219 126.48C180.179 125.92 180.179 125.04 179.219 124.48L132.299 97.4C131.339 96.84 129.779 96.84 128.819 97.4L49.4192 143.24C48.4592 143.76 48.4592 144.68 49.4192 145.24Z" fill="#E0E0E0"/>
<path d="M167.819 116.76L164.539 114.88C164.539 114.88 162.579 106.8 163.379 99.52C164.459 89.28 169.979 84.84 173.739 86.32C176.259 87.32 177.059 90.16 172.819 96.28C170.299 99.84 167.259 107.36 167.819 116.76Z" fill="#009A1C"/>
<g opacity="0.3">
<path d="M167.819 116.76L164.539 114.88C164.539 114.88 162.579 106.8 163.379 99.52C164.459 89.28 169.979 84.84 173.739 86.32C176.259 87.32 177.059 90.16 172.819 96.28C170.299 99.84 167.259 107.36 167.819 116.76Z" fill="black"/>
</g>
<path d="M166.46 112.8C166.46 112.76 166.46 112.76 166.46 112.8C166.62 112.76 166.7 112.64 166.66 112.52C164.86 103.08 168.18 92.48 172.26 88.08C172.34 88 172.34 87.84 172.26 87.76C172.18 87.68 172.02 87.68 171.94 87.76C167.78 92.24 164.42 103 166.26 112.6C166.26 112.72 166.34 112.8 166.46 112.8Z" fill="white"/>
<path d="M176.379 121.68C176.899 121.96 178.259 120.76 178.659 120.48C179.299 120 179.819 119.32 180.179 118.56C180.579 117.68 180.619 116.76 180.459 115.84C180.379 115.36 180.219 114.88 180.059 114.44C179.899 114 179.739 113.52 179.579 113.08C179.419 112.64 179.259 112.16 179.299 111.68C179.379 110.72 180.179 110 180.939 109.4C181.739 108.72 182.579 107.84 182.539 106.68C182.499 105.8 181.979 105 181.419 104.32C180.819 103.64 180.139 103.08 179.619 102.36C179.219 101.84 178.939 101.24 178.939 100.6C178.939 100.2 179.099 99.84 179.259 99.48C179.619 98.72 180.139 98 180.379 97.2C180.619 96.4 180.539 95.4 179.859 94.84C179.339 94.4 178.539 94.36 177.859 94.44C177.219 94.52 176.619 94.84 176.059 95.16C174.299 96.28 173.379 98.48 171.459 99.36C170.739 99.68 169.899 99.8 169.139 100.04C168.379 100.28 167.619 100.72 167.299 101.44C166.659 102.88 168.059 104.56 167.659 106.08C167.299 107.44 166.019 108 165.339 109.24C165.059 109.76 165.019 110.4 165.099 111C165.219 112.04 165.419 112.76 165.979 113.92C166.419 114.84 167.739 116.6 167.739 116.6C167.739 116.6 176.299 121.64 176.379 121.68Z" fill="#009A1C"/>
<g opacity="0.15">
<path d="M176.379 121.68C176.899 121.96 178.259 120.76 178.659 120.48C179.299 120 179.819 119.32 180.179 118.56C180.579 117.68 180.619 116.76 180.459 115.84C180.379 115.36 180.219 114.88 180.059 114.44C179.899 114 179.739 113.52 179.579 113.08C179.419 112.64 179.259 112.16 179.299 111.68C179.379 110.72 180.179 110 180.939 109.4C181.739 108.72 182.579 107.84 182.539 106.68C182.499 105.8 181.979 105 181.419 104.32C180.819 103.64 180.139 103.08 179.619 102.36C179.219 101.84 178.939 101.24 178.939 100.6C178.939 100.2 179.099 99.84 179.259 99.48C179.619 98.72 180.139 98 180.379 97.2C180.619 96.4 180.539 95.4 179.859 94.84C179.339 94.4 178.539 94.36 177.859 94.44C177.219 94.52 176.619 94.84 176.059 95.16C174.299 96.28 173.379 98.48 171.459 99.36C170.739 99.68 169.899 99.8 169.139 100.04C168.379 100.28 167.619 100.72 167.299 101.44C166.659 102.88 168.059 104.56 167.659 106.08C167.299 107.44 166.019 108 165.339 109.24C165.059 109.76 165.019 110.4 165.099 111C165.219 112.04 165.419 112.76 165.979 113.92C166.419 114.84 167.739 116.6 167.739 116.6C167.739 116.6 176.299 121.64 176.379 121.68Z" fill="black"/>
</g>
<path d="M171.378 119.08C171.498 119.08 171.618 118.96 171.578 118.84C170.738 109.88 174.498 99.72 177.418 96.68C177.498 96.6 177.498 96.44 177.418 96.36C177.338 96.28 177.178 96.28 177.098 96.36C174.098 99.44 170.298 109.76 171.138 118.88C171.138 119 171.258 119.08 171.378 119.08Z" fill="white"/>
<path d="M172.258 108.04C172.298 108.04 172.298 108.04 172.338 108.04C175.178 107 178.778 106.68 178.818 106.64C178.938 106.64 179.018 106.52 179.018 106.4C179.018 106.28 178.898 106.2 178.778 106.2C178.738 106.2 175.098 106.56 172.178 107.6C172.058 107.64 172.018 107.76 172.058 107.88C172.058 107.96 172.178 108.04 172.258 108.04Z" fill="white"/>
<path d="M51.0195 140.24C51.0195 141.44 51.8995 142.88 52.9795 143.52L96.0995 168.4C97.1795 169.04 98.9795 169.04 100.06 168.4L175.9 124.6C176.98 123.96 177.86 122.48 177.86 121.32C177.86 120.12 176.98 118.68 175.9 118.04L132.82 93.16C131.74 92.52 129.94 92.52 128.86 93.16L53.0195 136.96C51.9395 137.6 51.0195 139.08 51.0195 140.24Z" fill="#37474F"/>
<path d="M53.0209 139.24L96.1009 164.12C97.1809 164.76 98.9809 164.76 100.061 164.12L175.901 120.32C176.981 119.68 176.981 118.68 175.901 118.04L132.821 93.16C131.741 92.52 129.941 92.52 128.861 93.16L53.0209 136.96C51.9409 137.6 51.9409 138.6 53.0209 139.24Z" fill="#455A64"/>
<path d="M98.0605 164.6V168.88C97.3405 168.88 96.6205 168.72 96.1005 168.4L53.0205 143.52C51.9405 142.88 51.0605 141.4 51.0605 140.24C51.0605 139.12 51.8605 137.76 52.8205 137.08C51.9405 137.72 52.0205 138.64 53.0205 139.24L96.1005 164.12C96.6205 164.44 97.3405 164.6 98.0605 164.6Z" fill="#263238"/>
<path d="M49.1802 137.04C48.1402 136.44 48.2202 135.44 48.2202 134.2V74.72C48.2202 73.44 49.1002 71.92 50.1802 71.28L126.06 27.48C127.14 26.84 128.86 26.8 129.9 27.4C130.94 28 130.86 29 130.86 30.24V89.72C130.86 91 129.98 92.52 128.9 93.16L53.0202 136.96C51.9402 137.6 50.2202 137.64 49.1802 137.04Z" fill="#37474F"/>
<path d="M130.859 30.24C130.859 29 129.979 28.48 128.899 29.08L53.0193 72.88C52.4593 73.2 51.9793 73.72 51.6193 74.36L48.7793 72.72C49.1393 72.08 49.6193 71.56 50.1793 71.24L126.059 27.48C127.139 26.84 128.859 26.8 129.899 27.4C130.899 28 130.859 29 130.859 30.24Z" fill="#455A64"/>
<path d="M52.7802 137.08C51.7002 137.6 50.1402 137.6 49.1802 137.04C48.1402 136.44 48.2202 135.44 48.2202 134.2V74.68C48.2202 74.04 48.4202 73.36 48.8202 72.72L51.6602 74.36C51.3002 75 51.0602 75.68 51.0602 76.32V135.84C51.0202 137 51.8202 137.52 52.7802 137.08Z" fill="#263238"/>
<path d="M54.1004 75.16L127.22 32.96C127.86 32.6 128.42 32.88 128.42 33.64V85.6C128.42 86.36 127.9 87.28 127.22 87.64L54.1004 129.84C53.4604 130.2 52.9004 129.92 52.9004 129.16V77.24C52.9004 76.48 53.4204 75.56 54.1004 75.16Z" fill="#FAFAFA"/>
<path d="M58.5001 137.08L128.9 96.44C129.46 96.12 130.34 96.12 130.86 96.44L132.02 97.08C132.58 97.4 132.58 97.92 132.02 98.24L61.6201 138.88C61.0601 139.2 60.1801 139.2 59.6601 138.88L58.5001 138.24C57.9401 137.92 57.9401 137.4 58.5001 137.08Z" fill="#263238"/>
<path d="M64.0201 140.36L134.42 99.72C134.98 99.4 135.78 99.36 136.22 99.64L154.54 110.24C154.98 110.52 154.9 110.96 154.38 111.28L84.0601 151.84C83.5001 152.16 82.7001 152.2 82.2601 151.96L63.8601 141.44C63.3801 141.16 63.4601 140.68 64.0201 140.36Z" fill="#263238"/>
<path d="M125.02 116.8L127.22 115.52C127.3 115.48 127.34 115.4 127.22 115.32L125.1 114.12C125.02 114.08 124.86 114.08 124.78 114.12L122.58 115.4C122.5 115.44 122.46 115.52 122.58 115.6L124.7 116.8C124.78 116.84 124.94 116.84 125.02 116.8ZM121.82 112.4L119.62 113.68C119.54 113.72 119.5 113.8 119.62 113.88L121.74 115.08C121.82 115.12 121.98 115.12 122.06 115.08L124.26 113.8C124.34 113.76 124.38 113.68 124.26 113.6L122.14 112.4C122.06 112.32 121.9 112.32 121.82 112.4ZM114.7 116.48L110.98 118.64C110.9 118.68 110.86 118.76 110.98 118.84L113.1 120.04C113.18 120.08 113.34 120.08 113.42 120.04L117.14 117.88C117.22 117.84 117.26 117.76 117.14 117.68L115.02 116.48C114.9 116.44 114.78 116.44 114.7 116.48ZM118.58 114.24L116.38 115.52C116.3 115.56 116.26 115.64 116.38 115.72L118.5 116.92C118.58 116.96 118.74 116.96 118.82 116.92L121.02 115.64C121.1 115.6 121.14 115.52 121.02 115.44L118.9 114.24C118.82 114.2 118.66 114.2 118.58 114.24ZM109.94 119.24L107.74 120.52C107.66 120.56 107.62 120.64 107.74 120.72L109.86 121.92C109.94 121.96 110.1 121.96 110.18 121.92L112.38 120.64C112.46 120.6 112.5 120.52 112.38 120.44L110.26 119.24C110.18 119.16 110.02 119.2 109.94 119.24ZM106.7 121.08L104.5 122.36C104.42 122.4 104.38 122.48 104.5 122.56L106.62 123.76C106.7 123.8 106.86 123.8 106.94 123.76L109.14 122.48C109.22 122.44 109.26 122.36 109.14 122.28L107.02 121.08C106.94 121.04 106.82 121.04 106.7 121.08ZM114.98 126.08L117.18 124.8C117.26 124.76 117.3 124.68 117.18 124.6L115.06 123.4C114.98 123.36 114.82 123.36 114.74 123.4L112.54 124.68C112.46 124.72 112.42 124.8 112.54 124.88L114.66 126.08C114.74 126.12 114.9 126.12 114.98 126.08ZM111.74 127.92L113.94 126.64C114.02 126.6 114.06 126.52 113.94 126.44L111.82 125.24C111.74 125.2 111.58 125.2 111.5 125.24L109.3 126.52C109.22 126.56 109.18 126.64 109.3 126.72L111.42 127.92C111.5 128 111.66 127.96 111.74 127.92ZM108.54 129.8L110.74 128.52C110.82 128.48 110.86 128.4 110.74 128.32L108.62 127.12C108.54 127.08 108.38 127.08 108.3 127.12L106.1 128.4C106.02 128.44 105.98 128.52 106.1 128.6L108.22 129.8C108.3 129.84 108.46 129.84 108.54 129.8ZM105.3 131.64L107.5 130.36C107.58 130.32 107.62 130.24 107.5 130.16L105.38 128.96C105.3 128.92 105.14 128.92 105.06 128.96L102.86 130.24C102.78 130.28 102.74 130.36 102.86 130.44L104.98 131.64C105.06 131.72 105.22 131.68 105.3 131.64ZM121.82 118.64L124.02 117.36C124.1 117.32 124.14 117.24 124.02 117.16L121.9 115.96C121.82 115.92 121.66 115.92 121.58 115.96L119.38 117.24C119.3 117.28 119.26 117.36 119.38 117.44L121.5 118.64C121.58 118.72 121.7 118.72 121.82 118.64ZM118.18 124.2L123.1 121.36C123.18 121.32 123.22 121.24 123.1 121.16L117.98 118.2C117.9 118.16 117.74 118.16 117.66 118.2L115.1 119.68C115.02 119.72 114.98 119.8 115.1 119.88L117.82 121.44C117.9 121.48 117.9 121.56 117.82 121.64L115.78 122.8C115.7 122.84 115.66 122.92 115.78 123L117.9 124.2C117.98 124.28 118.1 124.24 118.18 124.2ZM103.5 122.96L101.3 124.24C101.22 124.28 101.18 124.36 101.3 124.44L103.42 125.64C103.5 125.68 103.66 125.68 103.74 125.64L105.94 124.36C106.02 124.32 106.06 124.24 105.94 124.16L103.82 122.96C103.74 122.88 103.58 122.92 103.5 122.96ZM100.26 124.8L98.0604 126.08C97.9804 126.12 97.9404 126.2 98.0604 126.28L100.18 127.48C100.26 127.52 100.42 127.52 100.5 127.48L102.7 126.2C102.78 126.16 102.82 126.08 102.7 126L100.58 124.8C100.5 124.76 100.38 124.76 100.26 124.8ZM82.4204 144.68C82.5004 144.72 82.6604 144.72 82.7404 144.68L84.9404 143.4C85.0204 143.36 85.0604 143.28 84.9404 143.2L82.8204 142C82.7404 141.96 82.5804 141.96 82.5004 142L80.3004 143.28C80.2204 143.32 80.1804 143.4 80.3004 143.48L82.4204 144.68ZM74.5004 139.68L72.3004 140.96C72.2204 141 72.1804 141.08 72.3004 141.16L74.4204 142.36C74.5004 142.4 74.6604 142.4 74.7404 142.36L76.9404 141.08C77.0204 141.04 77.0604 140.96 76.9404 140.88L74.8204 139.68C74.7404 139.64 74.5804 139.64 74.5004 139.68ZM78.5804 143.44C78.6604 143.48 78.8204 143.48 78.9004 143.44L81.1004 142.16C81.1804 142.12 81.2204 142.04 81.1004 141.96L78.9804 140.76C78.9004 140.72 78.7404 140.72 78.6604 140.76L76.4604 142.04C76.3804 142.08 76.3404 142.16 76.4604 142.24L78.5804 143.44ZM87.4604 145.44L89.6604 144.16C89.7404 144.12 89.7804 144.04 89.6604 143.96L87.5404 142.76C87.4604 142.72 87.3004 142.72 87.2204 142.76L85.0204 144.04C84.9404 144.08 84.9004 144.16 85.0204 144.24L87.1404 145.44C87.2204 145.48 87.3804 145.48 87.4604 145.44ZM83.9404 147.28C84.0204 147.32 84.1804 147.32 84.2604 147.28L86.4604 146C86.5404 145.96 86.5804 145.88 86.4604 145.8L84.3404 144.6C84.2604 144.56 84.1004 144.56 84.0204 144.6L81.8204 145.88C81.7404 145.92 81.7004 146 81.8204 146.08L83.9404 147.28ZM77.7004 137.84L75.5004 139.12C75.4204 139.16 75.3804 139.24 75.5004 139.32L77.6204 140.52C77.7004 140.56 77.8604 140.56 77.9404 140.52L80.1404 139.24C80.2204 139.2 80.2604 139.12 80.1404 139.04L78.0204 137.84C77.9404 137.76 77.8204 137.8 77.7004 137.84ZM93.8204 128.52L91.6204 129.8C91.5404 129.84 91.5004 129.92 91.6204 130L93.7404 131.2C93.8204 131.24 93.9804 131.24 94.0604 131.2L96.2604 129.92C96.3404 129.88 96.3804 129.8 96.2604 129.72L94.1404 128.52C94.0604 128.48 93.9004 128.48 93.8204 128.52ZM80.9404 135.96L78.7404 137.24C78.6604 137.28 78.6204 137.36 78.7404 137.44L80.8604 138.64C80.9404 138.68 81.1004 138.68 81.1804 138.64L83.3804 137.36C83.4604 137.32 83.5004 137.24 83.3804 137.16L81.2604 135.96C81.1804 135.92 81.0204 135.92 80.9404 135.96ZM97.0604 126.68L94.8604 127.96C94.7804 128 94.7404 128.08 94.8604 128.16L96.9804 129.36C97.0604 129.4 97.2204 129.4 97.3004 129.36L99.5004 128.08C99.5804 128.04 99.6204 127.96 99.5004 127.88L97.3804 126.68C97.3004 126.6 97.1404 126.64 97.0604 126.68ZM90.6204 130.4L88.4204 131.68C88.3404 131.72 88.3004 131.8 88.4204 131.88L90.5404 133.08C90.6204 133.12 90.7804 133.12 90.8604 133.08L93.0604 131.8C93.1404 131.76 93.1804 131.68 93.0604 131.6L90.9404 130.4C90.8204 130.32 90.7004 130.36 90.6204 130.4ZM87.3804 132.24L85.1804 133.52C85.1004 133.56 85.0604 133.64 85.1804 133.72L87.3004 134.92C87.3804 134.96 87.5404 134.96 87.6204 134.92L89.8204 133.64C89.9004 133.6 89.9404 133.52 89.8204 133.44L87.7004 132.24C87.6204 132.2 87.4604 132.2 87.3804 132.24ZM84.1404 134.12L81.9404 135.4C81.8604 135.44 81.8204 135.52 81.9404 135.6L84.0604 136.8C84.1404 136.84 84.3004 136.84 84.3804 136.8L86.5804 135.52C86.6604 135.48 86.7004 135.4 86.5804 135.32L84.4604 134.12C84.3804 134.04 84.2604 134.08 84.1404 134.12ZM98.8604 135.36L101.06 134.08C101.14 134.04 101.18 133.96 101.06 133.88L98.9404 132.68C98.8604 132.64 98.7004 132.64 98.6204 132.68L96.4204 133.96C96.3404 134 96.3004 134.08 96.4204 134.16L98.5404 135.36C98.6204 135.44 98.7804 135.4 98.8604 135.36ZM128.94 108.28L126.74 109.56C126.66 109.6 126.62 109.68 126.74 109.76L128.86 110.96C128.94 111 129.1 111 129.18 110.96L131.38 109.68C131.46 109.64 131.5 109.56 131.38 109.48L129.26 108.28C129.18 108.2 129.02 108.2 128.94 108.28ZM125.02 110.52L122.82 111.8C122.74 111.84 122.7 111.92 122.82 112L124.94 113.2C125.02 113.24 125.18 113.24 125.26 113.2L127.46 111.92C127.54 111.88 127.58 111.8 127.46 111.72L125.34 110.52C125.26 110.48 125.1 110.48 125.02 110.52ZM132.14 106.4L129.94 107.68C129.86 107.72 129.82 107.8 129.94 107.88L132.06 109.08C132.14 109.12 132.3 109.12 132.38 109.08L134.58 107.8C134.66 107.76 134.7 107.68 134.58 107.6L132.46 106.4C132.38 106.36 132.26 106.36 132.14 106.4ZM114.34 122.96L116.54 121.68C116.62 121.64 116.66 121.56 116.54 121.48L114.42 120.28C114.34 120.24 114.18 120.24 114.1 120.28L111.9 121.56C111.82 121.6 111.78 121.68 111.9 121.76L114.02 122.96C114.1 123 114.26 123 114.34 122.96ZM135.7 104.52C135.62 104.48 135.46 104.48 135.38 104.52L133.18 105.8C133.1 105.84 133.06 105.92 133.18 106L135.3 107.2C135.38 107.24 135.54 107.24 135.62 107.2L137.82 105.92C137.9 105.88 137.94 105.8 137.82 105.72L135.7 104.52ZM102.1 133.52L104.3 132.24C104.38 132.2 104.42 132.12 104.3 132.04L102.18 130.84C102.1 130.8 101.94 130.8 101.86 130.84L99.6604 132.12C99.5804 132.16 99.5404 132.24 99.6604 132.32L101.78 133.52C101.86 133.56 101.98 133.56 102.1 133.52ZM141.62 110.68L143.82 109.4C143.9 109.36 143.94 109.28 143.82 109.2L141.7 108C141.62 107.96 141.46 107.96 141.38 108L139.18 109.28C139.1 109.32 139.06 109.4 139.18 109.48L141.3 110.68C141.38 110.76 141.5 110.76 141.62 110.68ZM135.38 110.8L137.58 109.52C137.66 109.48 137.7 109.4 137.58 109.32L135.46 108.12C135.38 108.08 135.22 108.08 135.14 108.12L132.94 109.4C132.86 109.44 132.82 109.52 132.94 109.6L135.06 110.8C135.14 110.88 135.26 110.88 135.38 110.8ZM138.7 106.28C138.62 106.24 138.46 106.24 138.38 106.28L136.18 107.56C136.1 107.6 136.06 107.68 136.18 107.76L138.3 108.96C138.38 109 138.54 109 138.62 108.96L140.82 107.68C140.9 107.64 140.94 107.56 140.82 107.48L138.7 106.28ZM139.38 105.88L144.5 108.84C144.58 108.88 144.74 108.88 144.82 108.84L147.02 107.56C147.1 107.52 147.14 107.44 147.02 107.36L141.9 104.4C141.82 104.36 141.66 104.36 141.58 104.4L139.38 105.68C139.3 105.76 139.3 105.84 139.38 105.88ZM131.94 110L129.74 111.28C129.66 111.32 129.62 111.4 129.74 111.48L131.86 112.68C131.94 112.72 132.1 112.72 132.18 112.68L134.38 111.4C134.46 111.36 134.5 111.28 134.38 111.2L132.26 110C132.18 109.96 132.02 109.96 131.94 110ZM107.7 124L105.5 125.28C105.42 125.32 105.38 125.4 105.5 125.48L107.62 126.68C107.7 126.72 107.86 126.72 107.94 126.68L110.14 125.4C110.22 125.36 110.26 125.28 110.14 125.2L108.02 124C107.94 123.96 107.78 123.96 107.7 124ZM138.06 112.56C138.14 112.6 138.3 112.6 138.38 112.56L140.58 111.28C140.66 111.24 140.7 111.16 140.58 111.08L138.46 109.88C138.38 109.84 138.22 109.84 138.14 109.88L135.94 111.16C135.86 111.2 135.82 111.28 135.94 111.36L138.06 112.56ZM110.9 122.16L108.7 123.44C108.62 123.48 108.58 123.56 108.7 123.64L110.82 124.84C110.9 124.88 111.06 124.88 111.14 124.84L113.34 123.56C113.42 123.52 113.46 123.44 113.34 123.36L111.22 122.16C111.14 122.08 111.02 122.08 110.9 122.16ZM85.6604 142.8C85.7404 142.84 85.9004 142.84 85.9804 142.8L88.1804 141.52C88.2604 141.48 88.3004 141.4 88.1804 141.32L86.0604 140.12C85.9804 140.08 85.8204 140.08 85.7404 140.12L83.5404 141.4C83.4604 141.44 83.4204 141.52 83.5404 141.6L85.6604 142.8ZM81.9004 138.88L79.7004 140.16C79.6204 140.2 79.5804 140.28 79.7004 140.36L81.8204 141.56C81.9004 141.6 82.0604 141.6 82.1404 141.56L84.3404 140.28C84.4204 140.24 84.4604 140.16 84.3404 140.08L82.2204 138.88C82.1404 138.84 82.0204 138.84 81.9004 138.88ZM89.2204 140.96L91.4204 139.68C91.5004 139.64 91.5404 139.56 91.4204 139.48L89.3004 138.28C89.2204 138.24 89.0604 138.24 88.9804 138.28L86.7804 139.56C86.7004 139.6 86.6604 139.68 86.7804 139.76L88.9004 140.96C88.9804 141 89.1004 141 89.2204 140.96ZM92.4204 139.08L94.6204 137.8C94.7004 137.76 94.7404 137.68 94.6204 137.6L92.5004 136.4C92.4204 136.36 92.2604 136.36 92.1804 136.4L89.9804 137.68C89.9004 137.72 89.8604 137.8 89.9804 137.88L92.1004 139.08C92.1804 139.16 92.3404 139.12 92.4204 139.08ZM95.6604 137.24L97.8604 135.96C97.9404 135.92 97.9804 135.84 97.8604 135.76L95.7404 134.56C95.6604 134.52 95.5004 134.52 95.4204 134.56L93.2204 135.84C93.1404 135.88 93.1004 135.96 93.2204 136.04L95.3404 137.24C95.4204 137.28 95.5404 137.28 95.6604 137.24ZM85.1404 137.04L82.9404 138.32C82.8604 138.36 82.8204 138.44 82.9404 138.52L85.0604 139.72C85.1404 139.76 85.3004 139.76 85.3804 139.72L87.5804 138.44C87.6604 138.4 87.7004 138.32 87.5804 138.24L85.4604 137.04C85.3804 136.96 85.2204 136.96 85.1404 137.04ZM88.3404 135.16L86.1404 136.44C86.0604 136.48 86.0204 136.56 86.1404 136.64L88.2604 137.84C88.3404 137.88 88.5004 137.88 88.5804 137.84L90.7804 136.56C90.8604 136.52 90.9004 136.44 90.7804 136.36L88.6604 135.16C88.5804 135.12 88.4604 135.12 88.3404 135.16ZM101.26 127.72L99.0604 129C98.9804 129.04 98.9404 129.12 99.0604 129.2L101.18 130.4C101.26 130.44 101.42 130.44 101.5 130.4L103.7 129.12C103.78 129.08 103.82 129 103.7 128.92L101.58 127.72C101.5 127.68 101.34 127.68 101.26 127.72ZM98.0204 129.6L95.8204 130.88C95.7404 130.92 95.7004 131 95.8204 131.08L97.9404 132.28C98.0204 132.32 98.1804 132.32 98.2604 132.28L100.46 131C100.54 130.96 100.58 130.88 100.46 130.8L98.3404 129.6C98.2604 129.52 98.1004 129.52 98.0204 129.6ZM104.46 125.88L102.26 127.16C102.18 127.2 102.14 127.28 102.26 127.36L104.38 128.56C104.46 128.6 104.62 128.6 104.7 128.56L106.9 127.28C106.98 127.24 107.02 127.16 106.9 127.08L104.78 125.88C104.7 125.8 104.58 125.8 104.46 125.88ZM91.5804 133.32L89.3804 134.6C89.3004 134.64 89.2604 134.72 89.3804 134.8L91.5004 136C91.5804 136.04 91.7404 136.04 91.8204 136L94.0204 134.72C94.1004 134.68 94.1404 134.6 94.0204 134.52L91.9004 133.32C91.8204 133.24 91.6604 133.24 91.5804 133.32ZM94.8204 131.44L92.6204 132.72C92.5404 132.76 92.5004 132.84 92.6204 132.92L94.7404 134.12C94.8204 134.16 94.9804 134.16 95.0604 134.12L97.2604 132.84C97.3404 132.8 97.3804 132.72 97.2604 132.64L95.1404 131.44C95.0204 131.4 94.9004 131.4 94.8204 131.44ZM90.7004 143.56L92.9004 142.28C92.9804 142.24 93.0204 142.16 92.9004 142.08L90.7804 140.88C90.7004 140.84 90.5404 140.84 90.4604 140.88L88.2604 142.16C88.1804 142.2 88.1404 142.28 88.2604 142.36L90.3804 143.56C90.4604 143.64 90.5804 143.6 90.7004 143.56ZM73.7004 142.76L71.5804 141.56C71.5004 141.52 71.3404 141.52 71.2604 141.56L69.0604 142.84C68.9804 142.88 68.9404 142.96 69.0604 143.04L71.1804 144.24C71.2604 144.28 71.4204 144.28 71.5004 144.24L73.7004 142.96C73.7804 142.88 73.7804 142.8 73.7004 142.76ZM77.9004 143.8L75.7804 142.6C75.7004 142.56 75.5404 142.56 75.4604 142.6L72.0604 144.56C71.9804 144.6 71.9404 144.68 72.0604 144.76L74.1804 145.96C74.2604 146 74.4204 146 74.5004 145.96L77.9004 144C77.9804 143.96 77.9804 143.88 77.9004 143.8ZM70.5404 140.36L68.4204 139.16C68.3404 139.12 68.1804 139.12 68.1004 139.16L65.3804 140.72C65.3004 140.76 65.2604 140.84 65.3804 140.92L67.5004 142.12C67.5804 142.16 67.7404 142.16 67.8204 142.12L70.5404 140.56C70.6204 140.48 70.6204 140.4 70.5404 140.36ZM72.6204 139.16C72.7004 139.2 72.8604 139.2 72.9404 139.16L75.1404 137.88C75.2204 137.84 75.2604 137.76 75.1404 137.68L73.0204 136.48C72.9404 136.44 72.7804 136.44 72.7004 136.48L70.5004 137.76C70.4204 137.8 70.3804 137.88 70.5004 137.96L72.6204 139.16ZM81.7804 145.08L79.6604 143.88C79.5804 143.84 79.4204 143.84 79.3404 143.88L75.1004 146.32C75.0204 146.36 74.9804 146.44 75.1004 146.52L77.2204 147.72C77.3004 147.76 77.4604 147.76 77.5404 147.72L81.7804 145.28C81.8204 145.2 81.8604 145.12 81.7804 145.08ZM83.2604 147.68L81.1404 146.48C81.0604 146.44 80.9004 146.44 80.8204 146.48L78.1004 148.04C78.0204 148.08 77.9804 148.16 78.1004 148.24L80.2204 149.44C80.3004 149.48 80.4604 149.48 80.5404 149.44L83.2604 147.88C83.3404 147.8 83.3404 147.72 83.2604 147.68ZM96.5804 125.32C96.6604 125.36 96.8204 125.36 96.9004 125.32L99.1004 124.04C99.1804 124 99.2204 123.92 99.1004 123.84L96.9804 122.64C96.9004 122.6 96.7404 122.6 96.6604 122.64L94.4604 123.92C94.3804 123.96 94.3404 124.04 94.4604 124.12L96.5804 125.32ZM90.1404 129.04C90.2204 129.08 90.3804 129.08 90.4604 129.04L92.6604 127.76C92.7404 127.72 92.7804 127.64 92.6604 127.56L90.5404 126.36C90.4604 126.32 90.3004 126.32 90.2204 126.36L88.0204 127.64C87.9404 127.68 87.9004 127.76 88.0204 127.84L90.1404 129.04ZM75.8604 137.28C75.9404 137.32 76.1004 137.32 76.1804 137.28L78.3804 136C78.4604 135.96 78.5004 135.88 78.3804 135.8L76.2604 134.6C76.1804 134.56 76.0204 134.56 75.9404 134.6L73.7404 135.88C73.6604 135.92 73.6204 136 73.7404 136.08L75.8604 137.28ZM93.3804 127.2C93.4604 127.24 93.6204 127.24 93.7004 127.2L95.9004 125.92C95.9804 125.88 96.0204 125.8 95.9004 125.72L93.7804 124.52C93.7004 124.48 93.5404 124.48 93.4604 124.52L91.2604 125.8C91.1804 125.84 91.1404 125.92 91.2604 126L93.3804 127.2ZM86.9404 130.92C87.0204 130.96 87.1804 130.96 87.2604 130.92L89.4604 129.64C89.5404 129.6 89.5804 129.52 89.4604 129.44L87.3404 128.24C87.2604 128.2 87.1004 128.2 87.0204 128.24L84.8204 129.52C84.7404 129.56 84.7004 129.64 84.8204 129.72L86.9404 130.92ZM84.8204 147.8C84.7404 147.76 84.5804 147.76 84.5004 147.8L81.1004 149.76C81.0204 149.8 80.9804 149.88 81.1004 149.96L83.2204 151.16C83.3004 151.2 83.4604 151.2 83.5404 151.16L86.9404 149.2C87.0204 149.16 87.0604 149.08 86.9404 149L84.8204 147.8ZM82.3004 133.56C82.3804 133.6 82.5404 133.6 82.6204 133.56L84.8204 132.28C84.9004 132.24 84.9404 132.16 84.8204 132.08L82.7004 130.88C82.6204 130.84 82.4604 130.84 82.3804 130.88L80.1804 132.16C80.1004 132.2 80.0604 132.28 80.1804 132.36L82.3004 133.56ZM79.0604 135.44C79.1404 135.48 79.3004 135.48 79.3804 135.44L81.5804 134.16C81.6604 134.12 81.7004 134.04 81.5804 133.96L79.4604 132.76C79.3804 132.72 79.2204 132.72 79.1404 132.76L76.9404 134.04C76.8604 134.08 76.8204 134.16 76.9404 134.24L79.0604 135.44ZM144.5 113.36C144.42 113.32 144.26 113.32 144.18 113.36L138.74 116.48C138.66 116.52 138.62 116.6 138.74 116.68L140.86 117.88C140.94 117.92 141.1 117.92 141.18 117.88L146.62 114.76C146.7 114.72 146.74 114.64 146.62 114.56L144.5 113.36ZM137.38 117.48C137.3 117.44 137.14 117.44 137.06 117.48L134.86 118.76C134.78 118.8 134.74 118.88 134.86 118.96L136.98 120.16C137.06 120.2 137.22 120.2 137.3 120.16L139.5 118.88C139.58 118.84 139.62 118.76 139.5 118.68L137.38 117.48ZM93.9004 141.72L96.1004 140.44C96.1804 140.4 96.2204 140.32 96.1004 140.24L93.9804 139.04C93.9004 139 93.7404 139 93.6604 139.04L91.4604 140.32C91.3804 140.36 91.3404 140.44 91.4604 140.52L93.5804 141.72C93.6604 141.76 93.8204 141.76 93.9004 141.72ZM130.94 121.2C130.86 121.16 130.7 121.16 130.62 121.2L128.42 122.48C128.34 122.52 128.3 122.6 128.42 122.68L130.54 123.88C130.62 123.92 130.78 123.92 130.86 123.88L133.06 122.6C133.14 122.56 133.18 122.48 133.06 122.4L130.94 121.2ZM147.74 111.48C147.66 111.44 147.5 111.44 147.42 111.48L145.22 112.76C145.14 112.8 145.1 112.88 145.22 112.96L147.34 114.16C147.42 114.2 147.58 114.2 147.66 114.16L149.86 112.88C149.94 112.84 149.98 112.76 149.86 112.68L147.74 111.48ZM153.06 110.84L147.94 107.88C147.86 107.84 147.7 107.84 147.62 107.88L145.42 109.16C145.34 109.2 145.3 109.28 145.42 109.36L150.54 112.32C150.62 112.36 150.78 112.36 150.86 112.32L153.06 111.04C153.14 111 153.14 110.92 153.06 110.84ZM118.9 128.16C118.82 128.12 118.66 128.12 118.58 128.16L115.86 129.72C115.78 129.76 115.74 129.84 115.86 129.92L117.98 131.12C118.06 131.16 118.22 131.16 118.3 131.12L121.02 129.56C121.1 129.52 121.14 129.44 121.02 129.36L118.9 128.16ZM127.06 123.44C126.98 123.4 126.82 123.4 126.74 123.44L123.34 125.4C123.26 125.44 123.22 125.52 123.34 125.6L125.46 126.8C125.54 126.84 125.7 126.84 125.78 126.8L129.18 124.84C129.26 124.8 129.3 124.72 129.18 124.64L127.06 123.44ZM111.46 132.44C111.38 132.4 111.22 132.4 111.14 132.44L92.9804 142.92C92.9004 142.96 92.8604 143.04 92.9804 143.12L95.1004 144.32C95.1804 144.36 95.3404 144.36 95.4204 144.32L113.58 133.84C113.66 133.8 113.7 133.72 113.58 133.64L111.46 132.44ZM92.3004 143.52C92.2204 143.48 92.0604 143.48 91.9804 143.52L89.2604 145.08C89.1804 145.12 89.1404 145.2 89.2604 145.28L91.3804 146.48C91.4604 146.52 91.6204 146.52 91.7004 146.48L94.4204 144.92C94.5004 144.88 94.5404 144.8 94.4204 144.72L92.3004 143.52ZM115.18 130.28C115.1 130.24 114.94 130.24 114.86 130.28L112.14 131.84C112.06 131.88 112.02 131.96 112.14 132.04L114.26 133.24C114.34 133.28 114.5 133.28 114.58 133.24L117.3 131.68C117.38 131.64 117.42 131.56 117.3 131.48L115.18 130.28ZM88.5404 145.68C88.4604 145.64 88.3004 145.64 88.2204 145.68L85.5004 147.24C85.4204 147.28 85.3804 147.36 85.5004 147.44L87.6204 148.64C87.7004 148.68 87.8604 148.68 87.9404 148.64L90.6604 147.08C90.7404 147.04 90.7804 146.96 90.6604 146.88L88.5404 145.68ZM122.66 126C122.58 125.96 122.42 125.96 122.34 126L119.62 127.56C119.54 127.6 119.5 127.68 119.62 127.76L121.74 128.96C121.82 129 121.98 129 122.06 128.96L124.78 127.4C124.86 127.36 124.9 127.28 124.78 127.2L122.66 126ZM134.18 119.32C134.1 119.28 133.94 119.28 133.86 119.32L131.66 120.6C131.58 120.64 131.54 120.72 131.66 120.8L133.78 122C133.86 122.04 134.02 122.04 134.1 122L136.3 120.72C136.38 120.68 136.42 120.6 136.3 120.52L134.18 119.32ZM141.38 114.28L143.58 113C143.66 112.96 143.7 112.88 143.58 112.8L141.46 111.6C141.38 111.56 141.22 111.56 141.14 111.6L138.94 112.88C138.86 112.92 138.82 113 138.94 113.08L141.06 114.28C141.14 114.36 141.3 114.36 141.38 114.28ZM128.26 114.92L130.46 113.64C130.54 113.6 130.58 113.52 130.46 113.44L128.34 112.24C128.26 112.2 128.1 112.2 128.02 112.24L125.82 113.52C125.74 113.56 125.7 113.64 125.82 113.72L127.94 114.92C128.02 115 128.14 114.96 128.26 114.92ZM119.7 126.84L126.14 123.12C126.22 123.08 126.26 123 126.14 122.92L124.02 121.72C123.94 121.68 123.78 121.68 123.7 121.72L117.26 125.44C117.18 125.48 117.14 125.56 117.26 125.64L119.38 126.84C119.46 126.88 119.58 126.88 119.7 126.84ZM137.86 116.16C137.94 116.2 138.1 116.2 138.18 116.16L140.38 114.88C140.46 114.84 140.5 114.76 140.38 114.68L138.26 113.48C138.18 113.44 138.02 113.44 137.94 113.48L135.74 114.76C135.66 114.8 135.62 114.88 135.74 114.96L137.86 116.16ZM135.14 114.4L137.34 113.12C137.42 113.08 137.46 113 137.34 112.92L135.22 111.72C135.14 111.68 134.98 111.68 134.9 111.72L132.7 113C132.62 113.04 132.58 113.12 132.7 113.2L134.82 114.4C134.9 114.48 135.06 114.48 135.14 114.4ZM116.46 128.68L118.66 127.4C118.74 127.36 118.78 127.28 118.66 127.2L116.54 126C116.46 125.96 116.3 125.96 116.22 126L114.02 127.28C113.94 127.32 113.9 127.4 114.02 127.48L116.14 128.68C116.22 128.76 116.38 128.72 116.46 128.68ZM130.74 120.28C130.82 120.32 130.98 120.32 131.06 120.28L133.26 119C133.34 118.96 133.38 118.88 133.26 118.8L131.14 117.6C131.06 117.56 130.9 117.56 130.82 117.6L128.62 118.88C128.54 118.92 128.5 119 128.62 119.08L130.74 120.28ZM100.34 138L102.54 136.72C102.62 136.68 102.66 136.6 102.54 136.52L100.42 135.32C100.34 135.28 100.18 135.28 100.1 135.32L97.9004 136.6C97.8204 136.64 97.7804 136.72 97.9004 136.8L100.02 138C100.1 138.04 100.26 138.04 100.34 138ZM103.58 136.12L105.78 134.84C105.86 134.8 105.9 134.72 105.78 134.64L103.66 133.44C103.58 133.4 103.42 133.4 103.34 133.44L101.14 134.72C101.06 134.76 101.02 134.84 101.14 134.92L103.26 136.12C103.34 136.2 103.5 136.16 103.58 136.12ZM97.1404 139.84L99.3404 138.56C99.4204 138.52 99.4604 138.44 99.3404 138.36L97.2204 137.16C97.1404 137.12 96.9804 137.12 96.9004 137.16L94.7004 138.44C94.6204 138.48 94.5804 138.56 94.7004 138.64L96.8204 139.84C96.9004 139.92 97.0204 139.88 97.1404 139.84ZM110.02 132.4L112.22 131.12C112.3 131.08 112.34 131 112.22 130.92L110.1 129.72C110.02 129.68 109.86 129.68 109.78 129.72L107.58 131C107.5 131.04 107.46 131.12 107.58 131.2L109.7 132.4C109.78 132.48 109.94 132.44 110.02 132.4ZM106.78 134.28L108.98 133C109.06 132.96 109.1 132.88 108.98 132.8L106.86 131.6C106.78 131.56 106.62 131.56 106.54 131.6L104.34 132.88C104.26 132.92 104.22 133 104.34 133.08L106.46 134.28C106.58 134.32 106.7 134.32 106.78 134.28ZM113.26 130.56L115.46 129.28C115.54 129.24 115.58 129.16 115.46 129.08L113.34 127.88C113.26 127.84 113.1 127.84 113.02 127.88L110.82 129.16C110.74 129.2 110.7 129.28 110.82 129.36L112.94 130.56C113.02 130.6 113.14 130.6 113.26 130.56ZM130.82 104.68C130.9 104.72 131.06 104.72 131.14 104.68L133.34 103.4C133.42 103.36 133.46 103.28 133.34 103.2L132.78 102.88C132.7 102.84 132.54 102.84 132.46 102.88L130.26 104.16C130.18 104.2 130.14 104.28 130.26 104.36L130.82 104.68ZM114.82 114.8C114.9 114.84 115.06 114.84 115.14 114.8L117.34 113.52C117.42 113.48 117.46 113.4 117.34 113.32L115.22 112.12C115.14 112.08 114.98 112.08 114.9 112.12L112.7 113.4C112.62 113.44 112.58 113.52 112.7 113.6L114.82 114.8ZM121.26 111.08C121.34 111.12 121.5 111.12 121.58 111.08L123.78 109.8C123.86 109.76 123.9 109.68 123.78 109.6L121.66 108.4C121.58 108.36 121.42 108.36 121.34 108.4L119.14 109.68C119.06 109.72 119.02 109.8 119.14 109.88L121.26 111.08ZM110.86 117.08C110.94 117.12 111.1 117.12 111.18 117.08L113.38 115.8C113.46 115.76 113.5 115.68 113.38 115.6L111.26 114.4C111.18 114.36 111.02 114.36 110.94 114.4L108.74 115.68C108.66 115.72 108.62 115.8 108.74 115.88L110.86 117.08ZM118.02 112.96C118.1 113 118.26 113 118.34 112.96L120.54 111.68C120.62 111.64 120.66 111.56 120.54 111.48L118.42 110.28C118.34 110.24 118.18 110.24 118.1 110.28L115.9 111.56C115.82 111.6 115.78 111.68 115.9 111.76L118.02 112.96ZM104.42 120.8C104.5 120.84 104.66 120.84 104.74 120.8L106.94 119.52C107.02 119.48 107.06 119.4 106.94 119.32L104.82 118.12C104.74 118.08 104.58 118.08 104.5 118.12L102.3 119.4C102.22 119.44 102.18 119.52 102.3 119.6L104.42 120.8ZM107.66 118.92C107.74 118.96 107.9 118.96 107.98 118.92L110.18 117.64C110.26 117.6 110.3 117.52 110.18 117.44L108.06 116.24C107.98 116.2 107.82 116.2 107.74 116.24L105.54 117.52C105.46 117.56 105.42 117.64 105.54 117.72L107.66 118.92ZM124.38 108.4C124.46 108.44 124.62 108.44 124.7 108.4L126.9 107.12C126.98 107.08 127.02 107 126.9 106.92L126.34 106.6C126.26 106.56 126.1 106.56 126.02 106.6L123.82 107.88C123.74 107.92 123.7 108 123.82 108.08L124.38 108.4ZM134.06 102.8C134.14 102.84 134.3 102.84 134.38 102.8L136.58 101.52C136.66 101.48 136.7 101.4 136.58 101.32L136.02 101C135.94 100.96 135.78 100.96 135.7 101L133.5 102.28C133.42 102.32 133.38 102.4 133.5 102.48L134.06 102.8ZM138.46 105.36C138.54 105.4 138.7 105.4 138.78 105.36L140.98 104.08C141.06 104.04 141.1 103.96 140.98 103.88L138.86 102.68C138.78 102.64 138.62 102.64 138.54 102.68L136.34 103.96C136.26 104 136.22 104.08 136.34 104.16L138.46 105.36ZM144.62 112.44L146.82 111.16C146.9 111.12 146.94 111.04 146.82 110.96L144.7 109.76C144.62 109.72 144.46 109.72 144.38 109.76L142.18 111.04C142.1 111.08 142.06 111.16 142.18 111.24L144.3 112.44C144.38 112.48 144.5 112.48 144.62 112.44ZM127.62 106.52C127.7 106.56 127.86 106.56 127.94 106.52L130.14 105.24C130.22 105.2 130.26 105.12 130.14 105.04L129.58 104.72C129.5 104.68 129.34 104.68 129.26 104.72L127.06 106C126.98 106.04 126.94 106.12 127.06 106.2L127.62 106.52ZM101.22 122.64C101.3 122.68 101.46 122.68 101.54 122.64L103.74 121.36C103.82 121.32 103.86 121.24 103.74 121.16L101.62 119.96C101.54 119.92 101.38 119.92 101.3 119.96L99.1004 121.24C99.0204 121.28 98.9804 121.36 99.1004 121.44L101.22 122.64Z" fill="#455A64"/>
<path d="M110.74 139.28L111.18 139.52L123.22 146.48L144.54 134.12L144.98 133.88L132.54 126.68L110.74 139.28Z" fill="#37474F"/>
<path d="M111.18 139.52L123.22 146.48L144.54 134.12L132.54 127.2L111.18 139.52Z" fill="#263238"/>
<path d="M43.3405 85.28L38.4605 82.44C38.2605 82.32 38.1005 82.28 37.9805 82.32C37.8605 82.36 37.4605 82.6 37.3805 82.68C37.2605 82.72 37.2605 82.92 37.4205 83.2L38.6205 85.68L37.7405 86.48C37.3405 86.84 37.3805 87.4 37.8605 87.64L42.7405 90.48L43.3405 90.12V85.28Z" fill="#009A1C"/>
<path opacity="0.5" d="M43.3405 85.28L38.4605 82.44C38.2605 82.32 38.1005 82.28 37.9805 82.32C37.8605 82.36 37.4605 82.6 37.3805 82.68C37.2605 82.72 37.2605 82.92 37.4205 83.2L38.6205 85.68L37.7405 86.48C37.3405 86.84 37.3805 87.4 37.8605 87.64L42.7405 90.48L43.3405 90.12V85.28Z" fill="white"/>
<path d="M37.821 82.8C37.341 82.52 37.141 82.72 37.381 83.2L38.581 85.68L37.701 86.48C37.301 86.84 37.341 87.4 37.821 87.64L42.701 90.48V85.64L37.821 82.8Z" fill="#009A1C"/>
<path d="M43.3002 100.84C42.9802 100.84 42.7402 100.6 42.7402 100.28V84.04C42.7402 83.72 42.9802 83.48 43.3002 83.48C43.6202 83.48 43.8602 83.72 43.8602 84.04V100.28C43.8602 100.6 43.6202 100.84 43.3002 100.84Z" fill="#455A64"/>
<path d="M22.2598 144.12V143.12H22.4998C22.7798 142.52 23.3398 141.96 24.1398 141.52C26.6598 140.08 30.7798 140.08 33.2998 141.52C34.0998 142 34.6598 142.56 34.9398 143.12H35.1798V144.12C35.2198 145.08 34.5798 146.08 33.2998 146.8C30.7798 148.24 26.6598 148.24 24.1398 146.8C22.8598 146.04 22.2598 145.08 22.2598 144.12Z" fill="#263238"/>
<path d="M28.7398 146.8C32.3186 146.8 35.2198 145.135 35.2198 143.08C35.2198 141.026 32.3186 139.36 28.7398 139.36C25.161 139.36 22.2598 141.026 22.2598 143.08C22.2598 145.135 25.161 146.8 28.7398 146.8Z" fill="#455A64"/>
<path d="M30.3805 107.92V142.68C30.3805 142.92 30.2205 143.16 29.9005 143.36C29.2605 143.72 28.1805 143.72 27.5405 143.36C27.2205 143.16 27.0605 142.92 27.0605 142.68V107.92H30.3805Z" fill="#37474F"/>
<path d="M27.0605 112.12V115.36L30.3805 117.28V114.04L27.0605 112.12Z" fill="#263238"/>
<path d="M39.1398 104.8L45.2998 108.36C45.2598 108.4 45.2198 108.44 45.1798 108.48L34.4198 114.72C34.3398 114.76 34.2598 114.72 34.2598 114.64V106.88C34.2598 105.52 34.5798 104.04 35.1798 102.52L39.1398 104.8Z" fill="#009A1C"/>
<path opacity="0.4" d="M39.1398 104.8L45.2998 108.36C45.2598 108.4 45.2198 108.44 45.1798 108.48L34.4198 114.72C34.3398 114.76 34.2598 114.72 34.2598 114.64V106.88C34.2598 105.52 34.5798 104.04 35.1798 102.52L39.1398 104.8Z" fill="black"/>
<path d="M45.3406 99.72V108.4L35.1406 102.52C35.1406 102.48 35.1806 102.48 35.1806 102.44C36.2606 99.72 38.1006 97.4 40.1006 96.24C40.9406 95.76 41.7006 95.52 42.4206 95.52C44.2206 95.48 45.3406 97.12 45.3406 99.72Z" fill="#009A1C"/>
<path opacity="0.3" d="M45.3406 99.72V108.4L35.1406 102.52C35.1406 102.48 35.1806 102.48 35.1806 102.44C36.2606 99.72 38.1006 97.4 40.1006 96.24C40.9406 95.76 41.7006 95.52 42.4206 95.52C44.2206 95.48 45.3406 97.12 45.3406 99.72Z" fill="black"/>
<path d="M56.4202 118.08V117.32H56.3402V117.44C56.3002 117.24 56.2202 117 56.1402 116.8C55.7402 115.84 54.8602 114.92 53.5802 114.2L46.3002 110C45.9802 109.84 45.5002 109.84 45.2202 110L34.0202 116.4C33.9002 116.28 33.7802 116.2 33.6602 116V116.8C33.6602 116.92 33.7402 117.04 33.9002 117.12L41.1802 121.32C43.1402 122.44 45.7002 123 48.1402 122.96C50.2602 122.92 52.3402 122.48 53.9402 121.56C55.6202 120.6 56.4202 119.36 56.4202 118.08Z" fill="#009A1C"/>
<path opacity="0.4" d="M56.4202 118.08V117.32H56.3402V117.44C56.3002 117.24 56.2202 117 56.1402 116.8C55.7402 115.84 54.8602 114.92 53.5802 114.2L46.3002 110C45.9802 109.84 45.5002 109.84 45.2202 110L34.0202 116.4C33.9002 116.28 33.7802 116.2 33.6602 116V116.8C33.6602 116.92 33.7402 117.04 33.9002 117.12L41.1802 121.32C43.1402 122.44 45.7002 123 48.1402 122.96C50.2602 122.92 52.3402 122.48 53.9402 121.56C55.6202 120.6 56.4202 119.36 56.4202 118.08Z" fill="black"/>
<path d="M56.1395 116.8C55.7395 115.84 54.8595 114.92 53.5795 114.2L46.2995 110C45.9795 109.84 45.4995 109.84 45.2195 110L34.0195 116.4L41.1795 120.52C43.1395 121.64 45.6995 122.2 48.1395 122.16C50.2595 122.12 52.3395 121.68 53.9395 120.76C55.4195 119.92 56.2195 118.8 56.3795 117.68C56.3795 117.4 56.2995 117.08 56.1395 116.8Z" fill="#009A1C"/>
<path opacity="0.2" d="M56.1395 116.8C55.7395 115.84 54.8595 114.92 53.5795 114.2L46.2995 110C45.9795 109.84 45.4995 109.84 45.2195 110L34.0195 116.4L41.1795 120.52C43.1395 121.64 45.6995 122.2 48.1395 122.16C50.2595 122.12 52.3395 121.68 53.9395 120.76C55.4195 119.92 56.2195 118.8 56.3795 117.68C56.3795 117.4 56.2995 117.08 56.1395 116.8Z" fill="black"/>
<path d="M56.4202 117.68C56.3802 117.36 56.3002 117.08 56.1802 116.76C55.7802 115.8 54.9002 114.88 53.6202 114.16L46.3402 109.96C46.0202 109.8 45.5402 109.8 45.2602 109.96L34.0202 116.4L33.9002 116.32C33.5802 116.16 33.5802 115.88 33.9002 115.68L45.1802 109.16C45.5002 109 45.9802 109 46.2602 109.16L53.5402 113.36C54.8602 114.12 55.7002 115.04 56.1002 115.96C56.2202 116.28 56.3402 116.6 56.3402 116.92C56.4202 117.2 56.4202 117.44 56.4202 117.68Z" fill="#009A1C"/>
<path opacity="0.3" d="M56.4202 117.68C56.3802 117.36 56.3002 117.08 56.1802 116.76C55.7802 115.8 54.9002 114.88 53.6202 114.16L46.3402 109.96C46.0202 109.8 45.5402 109.8 45.2602 109.96L34.0202 116.4L33.9002 116.32C33.5802 116.16 33.5802 115.88 33.9002 115.68L45.1802 109.16C45.5002 109 45.9802 109 46.2602 109.16L53.5402 113.36C54.8602 114.12 55.7002 115.04 56.1002 115.96C56.2202 116.28 56.3402 116.6 56.3402 116.92C56.4202 117.2 56.4202 117.44 56.4202 117.68Z" fill="black"/>
<path d="M34.1406 115.6L45.4206 109.08L45.1806 108.48L34.4206 114.72L34.1406 115.6Z" fill="#009A1C"/>
<path opacity="0.1" d="M34.1406 115.6L45.4206 109.08L45.1806 108.48L34.4206 114.72L34.1406 115.6Z" fill="black"/>
<path d="M44.3407 99.2C44.3407 99.04 44.2207 98.84 44.0607 98.72L30.3407 90.8C30.1807 90.72 29.9407 90.72 29.8207 90.8L29.5007 90.96C29.3407 91.04 29.2207 91.24 29.2207 91.44V101.96C29.2207 102.12 29.3407 102.32 29.5007 102.44L43.2207 110.36C43.3807 110.44 43.6207 110.44 43.7407 110.36L44.0607 110.2C44.2207 110.12 44.3407 109.92 44.3407 109.72V99.2Z" fill="#F5F5F5"/>
<path d="M44.2608 98.92L43.5008 99.36L29.3008 91.16C29.3408 91.08 29.4208 91 29.5008 90.96L29.8208 90.8C29.9808 90.72 30.2208 90.72 30.3408 90.8L44.0608 98.72C44.1408 98.76 44.2208 98.84 44.2608 98.92Z" fill="#E0E0E0"/>
<path d="M43.4998 99.36L43.3398 99.44C43.4198 99.48 43.4998 99.56 43.4998 99.68V110.2C43.4998 110.28 43.4598 110.36 43.4198 110.36C43.3798 110.36 43.3398 110.36 43.2998 110.36C43.2998 110.36 43.2598 110.36 43.2598 110.32L29.5398 102.4C29.3798 102.32 29.2598 102.12 29.2598 101.92V91.4C29.2598 91.32 29.2998 91.2 29.3398 91.12L43.4998 99.36Z" fill="#EBEBEB"/>
<path opacity="0.2" d="M43.5007 99.36L37.1407 101.72C36.7007 101.88 36.1807 101.72 35.9007 101.32L34.8607 99.76L29.2207 91.12L34.6607 99.8L29.2207 101.92C29.2207 102 29.2607 102.12 29.3007 102.2L34.7007 99.84L35.9007 101.72C36.1807 102.16 36.7407 102.32 37.1807 102.12L38.0207 101.76L43.4207 110.36C43.4607 110.32 43.5007 110.28 43.5007 110.2V110L38.0607 101.76L43.5007 99.36Z" fill="black"/>
<path d="M41.1005 101.04C41.1005 100.88 40.9805 100.68 40.8205 100.56L27.1005 92.64C26.9405 92.56 26.7005 92.56 26.5805 92.64L26.2605 92.8C26.1005 92.88 25.9805 93.08 25.9805 93.28V103.8C25.9805 103.96 26.1005 104.16 26.2605 104.28L39.9805 112.2C40.1405 112.28 40.3805 112.28 40.5005 112.2L40.8205 112.04C40.9805 111.96 41.1005 111.76 41.1005 111.56V101.04Z" fill="#F5F5F5"/>
<path d="M41.0205 100.8L40.2605 101.24L26.0605 93.04C26.1005 92.96 26.1805 92.88 26.2605 92.84L26.5805 92.68C26.7405 92.6 26.9805 92.6 27.1005 92.68L40.8205 100.6C40.9005 100.64 40.9805 100.68 41.0205 100.8Z" fill="#E0E0E0"/>
<path d="M40.2595 101.2L40.0995 101.28C40.1795 101.32 40.2595 101.4 40.2595 101.52V112.04C40.2595 112.12 40.2195 112.2 40.1795 112.2C40.1395 112.2 40.0995 112.2 40.0595 112.2C40.0195 112.2 40.0195 112.2 40.0195 112.16L26.2995 104.24C26.1395 104.16 26.0195 103.96 26.0195 103.76V93.24C26.0195 93.16 26.0595 93.04 26.0995 92.96L40.2595 101.2Z" fill="#EBEBEB"/>
<path opacity="0.2" d="M40.2605 101.24L33.9005 103.6C33.4605 103.76 32.9405 103.6 32.6605 103.2L31.6205 101.64L25.9805 93L31.4205 101.68L25.9805 103.8C25.9805 103.88 26.0205 104 26.0605 104.08L31.4605 101.72L32.6605 103.6C32.9405 104.04 33.5005 104.2 33.9405 104L34.7805 103.64L40.1805 112.24C40.2205 112.2 40.2605 112.16 40.2605 112.08V111.92L34.8205 103.68L40.2605 101.24Z" fill="black"/>
<path d="M37.8602 102.92C37.8602 102.76 37.7402 102.56 37.5802 102.44L23.8602 94.52C23.7002 94.44 23.4602 94.44 23.3402 94.52L23.0202 94.68C22.8602 94.76 22.7402 94.96 22.7402 95.16V105.68C22.7402 105.84 22.8602 106.04 23.0202 106.16L36.7402 114.08C36.9002 114.16 37.1402 114.16 37.2602 114.08L37.5802 113.92C37.7402 113.84 37.8602 113.64 37.8602 113.44V102.92Z" fill="#F5F5F5"/>
<path d="M37.7803 102.64L37.0203 103.08L22.8203 94.88C22.8603 94.8 22.9403 94.72 23.0203 94.68L23.3403 94.52C23.5003 94.44 23.7403 94.44 23.8603 94.52L37.5803 102.44C37.6603 102.48 37.7403 102.56 37.7803 102.64Z" fill="#E0E0E0"/>
<path d="M37.0193 103.08L36.8593 103.16C36.9393 103.2 37.0193 103.28 37.0193 103.4V113.92C37.0193 114 36.9793 114.08 36.9393 114.08C36.8993 114.08 36.8593 114.12 36.8193 114.08C36.8193 114.08 36.7793 114.08 36.7793 114.04L23.0593 106.12C22.8993 106.04 22.7793 105.84 22.7793 105.64V95.12C22.7793 95.04 22.8193 94.92 22.8593 94.84L37.0193 103.08Z" fill="#EBEBEB"/>
<path opacity="0.2" d="M37.0202 103.08L30.6602 105.44C30.2202 105.6 29.7002 105.44 29.4202 105.04L28.3802 103.48L22.7402 94.84L28.1802 103.52L22.7402 105.64C22.7402 105.72 22.7802 105.84 22.8202 105.92L28.2202 103.56L29.4202 105.44C29.7002 105.88 30.2602 106.04 30.7002 105.84L31.5402 105.48L36.9402 114.08C36.9802 114.04 37.0202 114 37.0202 113.92V113.76L31.5802 105.52L37.0202 103.08Z" fill="black"/>
<path d="M43.9402 95.2C42.8602 94.64 41.3802 94.72 39.8202 95.64C38.0602 96.68 36.4202 98.52 35.3002 100.64C35.0202 101.12 34.8202 101.64 34.5802 102.16C33.9402 103.72 33.5802 105.32 33.5802 106.84V115.72C33.3802 115.72 33.1802 115.68 33.0202 115.6L17.2202 106.48C16.9002 106.32 16.6602 105.88 16.6602 105.52V97.08C16.6602 92.88 19.4202 87.88 22.8602 85.88C24.4602 84.96 25.9402 84.88 27.0602 85.48L43.9402 95.2Z" fill="#009A1C"/>
<path opacity="0.2" d="M43.9402 95.2C42.8602 94.64 41.3802 94.72 39.8202 95.64C38.0602 96.68 36.4202 98.52 35.3002 100.64C35.0202 101.12 34.8202 101.64 34.5802 102.16C33.9402 103.72 33.5802 105.32 33.5802 106.84V115.72C33.3802 115.72 33.1802 115.68 33.0202 115.6L17.2202 106.48C16.9002 106.32 16.6602 105.88 16.6602 105.52V97.08C16.6602 92.88 19.4202 87.88 22.8602 85.88C24.4602 84.96 25.9402 84.88 27.0602 85.48L43.9402 95.2Z" fill="black"/>
<path opacity="0.1" d="M17.2607 106.48L33.0607 115.6C33.2207 115.68 33.4207 115.72 33.6207 115.72V106.84C33.6207 106.04 33.7407 105.2 33.9007 104.36L17.0207 94.6C16.8207 95.44 16.7407 96.28 16.7407 97.08V105.52C16.7007 105.84 16.9407 106.28 17.2607 106.48Z" fill="black"/>
<path d="M34.5809 102.16C33.9409 103.72 33.5809 105.32 33.5809 106.84V115.72C33.5009 115.72 33.4609 115.72 33.3809 115.68C33.3809 115.16 33.3809 112.32 33.3809 106.84C33.3809 100.32 38.4209 96.16 39.7809 95.64C38.0209 96.68 36.3809 98.52 35.2609 100.64C35.0209 101.16 34.7809 101.68 34.5809 102.16Z" fill="#009A1C"/>
<path opacity="0.4" d="M34.5809 102.16C33.9409 103.72 33.5809 105.32 33.5809 106.84V115.72C33.5009 115.72 33.4609 115.72 33.3809 115.68C33.3809 115.16 33.3809 112.32 33.3809 106.84C33.3809 100.32 38.4209 96.16 39.7809 95.64C38.0209 96.68 36.3809 98.52 35.2609 100.64C35.0209 101.16 34.7809 101.68 34.5809 102.16Z" fill="black"/>
<path d="M34.4211 114.72C34.3411 114.76 34.2611 114.72 34.2611 114.64V106.88C34.2611 105.52 34.5811 104.04 35.1811 102.52C35.1811 102.48 35.2211 102.48 35.2211 102.44C35.4611 101.88 35.7011 101.36 35.9811 100.84C37.0611 98.8 38.5811 97.16 40.1811 96.24C41.0211 95.76 41.7811 95.52 42.5011 95.52C42.9411 95.52 43.3411 95.64 43.7011 95.8C44.7811 96.36 45.4211 97.76 45.4211 99.72V108.2C45.4211 108.32 45.3411 108.44 45.2611 108.48L45.5011 109.08L45.5411 109.04C45.6211 109 45.7011 108.92 45.7811 108.84C45.9411 108.64 46.0611 108.36 46.0611 108.16V99.72C46.0611 97.48 45.2611 95.88 43.9811 95.24C42.9011 94.68 41.4611 94.76 39.8611 95.68C38.1011 96.72 36.4611 98.56 35.3411 100.68C35.0611 101.16 34.8611 101.68 34.6211 102.2C34.0211 103.76 33.6211 105.36 33.6211 106.88V115.76C33.6611 115.76 33.7011 115.76 33.7011 115.76C33.8611 115.76 34.0211 115.72 34.1411 115.64L34.4211 114.72Z" fill="#009A1C"/>
<path opacity="0.1" d="M34.4211 114.72C34.3411 114.76 34.2611 114.72 34.2611 114.64V106.88C34.2611 105.52 34.5811 104.04 35.1811 102.52C35.1811 102.48 35.2211 102.48 35.2211 102.44C35.4611 101.88 35.7011 101.36 35.9811 100.84C37.0611 98.8 38.5811 97.16 40.1811 96.24C41.0211 95.76 41.7811 95.52 42.5011 95.52C42.9411 95.52 43.3411 95.64 43.7011 95.8C44.7811 96.36 45.4211 97.76 45.4211 99.72V108.2C45.4211 108.32 45.3411 108.44 45.2611 108.48L45.5011 109.08L45.5411 109.04C45.6211 109 45.7011 108.92 45.7811 108.84C45.9411 108.64 46.0611 108.36 46.0611 108.16V99.72C46.0611 97.48 45.2611 95.88 43.9811 95.24C42.9011 94.68 41.4611 94.76 39.8611 95.68C38.1011 96.72 36.4611 98.56 35.3411 100.68C35.0611 101.16 34.8611 101.68 34.6211 102.2C34.0211 103.76 33.6211 105.36 33.6211 106.88V115.76C33.6611 115.76 33.7011 115.76 33.7011 115.76C33.8611 115.76 34.0211 115.72 34.1411 115.64L34.4211 114.72Z" fill="black"/>
<path d="M72.0605 91.96C72.0605 91.28 72.5405 90.48 73.1005 90.16L124.381 60.56C124.941 60.24 125.901 60.24 126.461 60.56L127.621 61.24C128.181 61.56 128.661 62.36 128.661 63.04V103.8C128.661 104.44 128.181 105.28 127.621 105.6L76.3406 135.2C75.7806 135.52 74.8205 135.52 74.2605 135.2L73.1005 134.52C72.5405 134.2 72.0605 133.36 72.0605 132.72V91.96Z" fill="#009A1C"/>
<g opacity="0.7">
<path d="M72.0605 91.96C72.0605 91.28 72.5405 90.48 73.1005 90.16L124.381 60.56C124.941 60.24 125.901 60.24 126.461 60.56L127.621 61.24C128.181 61.56 128.661 62.36 128.661 63.04V103.8C128.661 104.44 128.181 105.28 127.621 105.6L76.3406 135.2C75.7806 135.52 74.8205 135.52 74.2605 135.2L73.1005 134.52C72.5405 134.2 72.0605 133.36 72.0605 132.72V91.96Z" fill="white"/>
</g>
<path d="M72.3809 90.92L75.3409 92.64L128.381 62C128.181 61.68 127.941 61.4 127.661 61.24L126.501 60.56C125.941 60.24 124.981 60.24 124.421 60.56L73.1409 90.16C72.8209 90.32 72.5809 90.6 72.3809 90.92Z" fill="#009A1C"/>
<path opacity="0.8" d="M72.3809 90.92L75.3409 92.64L128.381 62C128.181 61.68 127.941 61.4 127.661 61.24L126.501 60.56C125.941 60.24 124.981 60.24 124.421 60.56L73.1409 90.16C72.8209 90.32 72.5809 90.6 72.3809 90.92Z" fill="white"/>
<path opacity="0.1" d="M72.0605 91.96V132.72C72.0605 133.4 72.5405 134.2 73.1005 134.52L74.2605 135.2C74.3405 135.24 74.4606 135.28 74.5406 135.32C74.6606 135.36 74.8205 135.4 74.9805 135.4C75.2605 135.44 75.5406 135.44 75.8206 135.36C75.9006 135.36 75.9406 135.32 76.0206 135.32C76.0606 135.32 76.1006 135.28 76.1406 135.28C75.9406 135.36 75.7806 135.32 75.6206 135.28C75.4206 135.16 75.3005 134.96 75.3005 134.6V93.84C75.3005 93.4 75.5005 93.08 75.8605 92.96L75.3005 92.64L72.3406 90.92C72.1806 91.24 72.0605 91.64 72.0605 91.96Z" fill="#009A1C"/>
<path opacity="0.05" d="M72.0605 91.96V132.72C72.0605 133.4 72.5405 134.2 73.1005 134.52L74.2605 135.2C74.3405 135.24 74.4606 135.28 74.5406 135.32C74.6606 135.36 74.8205 135.4 74.9805 135.4C75.2605 135.44 75.5406 135.44 75.8206 135.36C75.9006 135.36 75.9406 135.32 76.0206 135.32C76.0606 135.32 76.1006 135.28 76.1406 135.28C75.9406 135.36 75.7806 135.32 75.6206 135.28C75.4206 135.16 75.3005 134.96 75.3005 134.6V93.84C75.3005 93.4 75.5005 93.08 75.8605 92.96L75.3005 92.64L72.3406 90.92C72.1806 91.24 72.0605 91.64 72.0605 91.96Z" fill="black"/>
<path opacity="0.2" d="M75.3398 92.64L99.9798 101.84C101.74 102.48 103.7 101.84 104.74 100.28L108.7 94.24L128.42 62.04L109.5 94.48L128.74 103.84C128.74 104.16 128.62 104.56 128.42 104.88L109.46 94.56L104.86 101.92C103.82 103.6 101.66 104.28 99.8598 103.44L96.5798 102L75.7398 135.28C75.5398 135.16 75.4198 134.96 75.4198 134.6V133.92L96.4998 101.96L75.3398 92.64Z" fill="#009A1C"/>
<path opacity="0.05" d="M75.3398 92.64L99.9798 101.84C101.74 102.48 103.7 101.84 104.74 100.28L108.7 94.24L128.42 62.04L109.5 94.48L128.74 103.84C128.74 104.16 128.62 104.56 128.42 104.88L109.46 94.56L104.86 101.92C103.82 103.6 101.66 104.28 99.8598 103.44L96.5798 102L75.7398 135.28C75.5398 135.16 75.4198 134.96 75.4198 134.6V133.92L96.4998 101.96L75.3398 92.64Z" fill="black"/>
<path d="M85.0605 99.48C85.0605 98.8 85.5405 98 86.1005 97.68L137.381 68.08C137.941 67.76 138.901 67.76 139.461 68.08L140.621 68.76C141.181 69.08 141.661 69.88 141.661 70.56V111.32C141.661 111.96 141.181 112.8 140.621 113.12L89.3406 142.72C88.7806 143.04 87.8205 143.04 87.2605 142.72L86.1005 142C85.5405 141.68 85.0605 140.88 85.0605 140.2V99.48Z" fill="#009A1C"/>
<g opacity="0.5">
<path d="M85.0605 99.48C85.0605 98.8 85.5405 98 86.1005 97.68L137.381 68.08C137.941 67.76 138.901 67.76 139.461 68.08L140.621 68.76C141.181 69.08 141.661 69.88 141.661 70.56V111.32C141.661 111.96 141.181 112.8 140.621 113.12L89.3406 142.72C88.7806 143.04 87.8205 143.04 87.2605 142.72L86.1005 142C85.5405 141.68 85.0605 140.88 85.0605 140.2V99.48Z" fill="white"/>
</g>
<path d="M85.3809 98.44L88.3409 100.16L141.381 69.52C141.181 69.2 140.941 68.92 140.661 68.76L139.501 68.08C138.941 67.76 137.981 67.76 137.421 68.08L86.1409 97.68C85.8209 97.84 85.5809 98.12 85.3809 98.44Z" fill="#009A1C"/>
<path opacity="0.6" d="M85.3809 98.44L88.3409 100.16L141.381 69.52C141.181 69.2 140.941 68.92 140.661 68.76L139.501 68.08C138.941 67.76 137.981 67.76 137.421 68.08L86.1409 97.68C85.8209 97.84 85.5809 98.12 85.3809 98.44Z" fill="white"/>
<path opacity="0.1" d="M85.0605 99.48V140.24C85.0605 140.92 85.5405 141.72 86.1005 142.04L87.2605 142.72C87.3405 142.76 87.4606 142.8 87.5406 142.84C87.6606 142.88 87.8205 142.92 87.9805 142.92C88.2605 142.96 88.5406 142.96 88.8206 142.88C88.9006 142.88 88.9406 142.84 89.0206 142.84C89.0606 142.84 89.1006 142.8 89.1406 142.8C88.9406 142.88 88.7805 142.84 88.6605 142.8C88.4605 142.68 88.3406 142.48 88.3406 142.12V101.32C88.3406 100.88 88.5405 100.56 88.9005 100.44L88.3406 100.12L85.3805 98.4C85.1805 98.76 85.0605 99.12 85.0605 99.48Z" fill="black"/>
<path opacity="0.4" d="M88.3398 100.16L112.98 109.36C114.74 110 116.7 109.36 117.74 107.8L121.7 101.76L141.42 69.56L122.5 102L141.74 111.36C141.74 111.68 141.62 112.08 141.42 112.4L122.46 102.08L117.86 109.44C116.82 111.12 114.66 111.8 112.86 110.96L109.58 109.52L88.7398 142.8C88.5398 142.68 88.4198 142.48 88.4198 142.12V141.44L109.5 109.48L88.3398 100.16Z" fill="#009A1C"/>
<path opacity="0.05" d="M88.3398 100.16L112.98 109.36C114.74 110 116.7 109.36 117.74 107.8L121.7 101.76L141.42 69.56L122.5 102L141.74 111.36C141.74 111.68 141.62 112.08 141.42 112.4L122.46 102.08L117.86 109.44C116.82 111.12 114.66 111.8 112.86 110.96L109.58 109.52L88.7398 142.8C88.5398 142.68 88.4198 142.48 88.4198 142.12V141.44L109.5 109.48L88.3398 100.16Z" fill="black"/>
<path d="M98.1797 107.32L151.54 76.52L153.66 77.76C154.22 78.08 154.66 78.88 154.66 79.48V118.84C154.66 119.48 154.22 120.24 153.66 120.56L102.3 150.2C101.74 150.52 100.86 150.52 100.3 150.2L99.1797 149.56C98.6197 149.24 98.1797 148.44 98.1797 147.84V107.32Z" fill="#009A1C"/>
<path opacity="0.2" d="M98.1797 107.32L151.54 76.52L153.66 77.76C154.22 78.08 154.66 78.88 154.66 79.48V118.84C154.66 119.48 154.22 120.24 153.66 120.56L102.3 150.2C101.74 150.52 100.86 150.52 100.3 150.2L99.1797 149.56C98.6197 149.24 98.1797 148.44 98.1797 147.84V107.32Z" fill="black"/>
<path d="M151.22 73.04L151.42 72.92L150.58 72.44C150.5 72.4 150.42 72.36 150.34 72.32L126.86 63.6C126.22 63.36 125.42 63.64 125.06 64.16L98.7796 102.52C98.4196 103.08 98.0996 104.04 98.0996 104.72C98.0996 105.8 98.0996 107.28 98.0996 107.28L98.8996 107.76L151.42 76.48V73.92C151.54 73.64 151.42 73.32 151.22 73.04Z" fill="#009A1C"/>
<path opacity="0.1" d="M126.221 64.4C126.101 64.48 126.021 64.56 125.941 64.68L99.6609 103.04C99.4609 103.32 99.3009 103.72 99.1809 104.12L98.3809 103.64C98.4209 103.44 98.5009 103.24 98.5809 103.04C98.6209 102.96 98.6609 102.88 98.7009 102.8V102.76C98.7409 102.68 98.7809 102.6 98.8609 102.52L125.141 64.16C125.181 64.08 125.221 64.04 125.261 64C125.301 63.96 125.341 63.92 125.421 63.88L126.221 64.4Z" fill="black"/>
<path opacity="0.35" d="M151.46 72.92C151.38 72.88 151.3 72.84 151.22 72.8L127.74 64.08C127.26 63.88 126.62 64.04 126.22 64.36L125.42 63.88C125.82 63.52 126.46 63.4 126.94 63.6L150.42 72.32C150.5 72.36 150.58 72.4 150.62 72.44L151.46 72.92Z" fill="white"/>
<path d="M98.6992 102.8C98.7392 102.72 98.7792 102.64 98.8592 102.56C98.8192 102.64 98.7792 102.72 98.6992 102.8Z" fill="#009A1C"/>
<path d="M98.3809 103.68C98.4609 103.48 98.5009 103.28 98.5809 103.08C98.5009 103.28 98.4209 103.48 98.3809 103.68Z" fill="#009A1C"/>
<path d="M125.94 64.68L99.6605 103.04C99.3005 103.6 98.9805 104.56 98.9805 105.24C98.9805 106.32 98.9805 107.8 98.9805 107.8L152.34 77V74.44C152.34 73.76 151.82 73.04 151.22 72.84L127.74 64.12C127.14 63.88 126.3 64.12 125.94 64.68Z" fill="#009A1C"/>
<path opacity="0.05" d="M152.34 74.44C152.34 74.12 152.22 73.8 152.06 73.56L99.1805 104.16C99.0605 104.52 98.9805 104.92 98.9805 105.24C98.9805 106.32 98.9805 107.8 98.9805 107.8L152.34 77V74.44Z" fill="black"/>
<path d="M150.059 63.6C150.059 63.32 149.979 63.12 149.819 63.04C149.659 62.96 148.339 62.2 148.179 62.08C148.019 62 147.819 62 147.579 62.16L103.819 87.44C103.339 87.72 102.939 88.4 102.939 88.96V141.36C102.939 141.64 103.019 141.84 103.179 141.92C103.339 142 104.659 142.76 104.819 142.84C104.979 142.92 105.179 142.92 105.419 142.76L149.179 117.48C149.659 117.2 150.059 116.52 150.059 116V63.6Z" fill="#F0F0F0"/>
<path d="M105.46 142.8L149.22 117.52C149.7 117.24 150.1 116.56 150.1 116V63.6C150.1 63.04 149.7 62.84 149.22 63.08L105.46 88.36C104.98 88.64 104.58 89.32 104.58 89.88V142.28C104.58 142.84 104.98 143.08 105.46 142.8Z" fill="#FAFAFA"/>
<path d="M133.499 93.2C133.459 93.84 133.339 94.4 133.179 94.96C133.019 95.52 132.779 96 132.539 96.44C132.299 96.88 132.019 97.24 131.699 97.56C131.379 97.88 131.099 98.12 130.779 98.28C130.219 98.56 129.819 98.68 129.499 98.6C129.219 98.52 128.979 98.4 128.859 98.2C128.779 98.4 128.659 98.6 128.579 98.84C128.459 99.04 128.339 99.24 128.179 99.48C128.019 99.68 127.819 99.88 127.579 100.08C127.339 100.28 127.059 100.48 126.699 100.64C126.299 100.84 125.939 100.92 125.619 100.84C125.299 100.76 125.019 100.6 124.819 100.28C124.619 99.96 124.459 99.56 124.339 99C124.219 98.48 124.219 97.84 124.219 97.08C124.259 96.36 124.339 95.64 124.499 95C124.659 94.32 124.819 93.72 125.059 93.2C125.299 92.64 125.579 92.16 125.899 91.76C126.219 91.36 126.619 91.04 127.019 90.84C127.459 90.6 127.779 90.52 128.019 90.64C128.219 90.72 128.419 90.88 128.539 91.12V90.92C128.539 90.76 128.579 90.56 128.699 90.4C128.779 90.24 128.899 90.12 129.019 90.04L129.859 89.6C129.979 89.52 130.099 89.56 130.179 89.64C130.259 89.72 130.299 89.84 130.299 90.04L130.099 95.16C130.099 95.56 130.139 95.8 130.299 95.92C130.459 96.04 130.659 96.04 130.859 95.92C131.059 95.8 131.259 95.6 131.459 95.32C131.619 95.04 131.739 94.6 131.779 94.08C131.819 93.64 131.859 93.16 131.859 92.72C131.859 92.24 131.899 91.8 131.859 91.4C131.819 90.56 131.739 89.84 131.539 89.28C131.339 88.72 131.099 88.32 130.739 88.04C130.379 87.8 129.939 87.68 129.379 87.76C128.819 87.8 128.179 88.04 127.419 88.44C126.779 88.76 126.219 89.2 125.699 89.72C125.179 90.24 124.739 90.84 124.339 91.48C123.939 92.12 123.659 92.84 123.419 93.6C123.179 94.36 123.019 95.16 122.899 95.96C122.859 96.16 122.859 96.48 122.819 96.8C122.819 97.16 122.779 97.52 122.779 97.88C122.779 98.24 122.739 98.6 122.739 98.96C122.739 99.32 122.739 99.6 122.739 99.8C122.779 100.52 122.899 101.16 123.099 101.68C123.299 102.2 123.579 102.6 123.899 102.92C124.259 103.2 124.659 103.36 125.139 103.36C125.619 103.36 126.179 103.2 126.819 102.88C127.259 102.64 127.659 102.4 127.979 102.2C128.299 101.96 128.619 101.72 128.859 101.48C129.099 101.24 129.339 101 129.499 100.8C129.699 100.56 129.859 100.36 129.979 100.12C130.099 99.92 130.219 99.8 130.259 99.68C130.339 99.6 130.419 99.52 130.539 99.44L131.739 98.8C131.859 98.72 131.979 98.76 132.059 98.8C132.139 98.88 132.179 99 132.179 99.24C132.179 99.36 132.139 99.52 132.059 99.64C131.819 100.08 131.539 100.56 131.219 101.08C130.899 101.6 130.539 102.08 130.139 102.56C129.739 103.04 129.219 103.52 128.659 103.96C128.099 104.44 127.419 104.84 126.659 105.24C125.699 105.72 124.859 105.96 124.179 105.92C123.459 105.88 122.899 105.64 122.419 105.2C121.939 104.76 121.579 104.16 121.339 103.36C121.099 102.6 120.939 101.72 120.939 100.72C120.939 100.52 120.939 100.2 120.939 99.84C120.939 99.48 120.979 99.08 120.979 98.68C120.979 98.28 121.019 97.88 121.019 97.52C121.019 97.16 121.059 96.84 121.059 96.64C121.139 95.6 121.339 94.56 121.659 93.52C121.979 92.44 122.419 91.44 122.939 90.48C123.459 89.52 124.099 88.64 124.859 87.84C125.619 87.04 126.459 86.4 127.419 85.92C128.539 85.36 129.459 85.08 130.259 85.08C131.019 85.08 131.619 85.28 132.099 85.72C132.579 86.16 132.899 86.76 133.139 87.56C133.339 88.36 133.459 89.28 133.499 90.28C133.499 90.68 133.499 91.16 133.459 91.72C133.539 92.24 133.539 92.76 133.499 93.2ZM125.979 96.12C125.939 96.92 126.019 97.48 126.219 97.8C126.419 98.12 126.699 98.2 127.099 98C127.499 97.8 127.819 97.44 128.019 96.88C128.219 96.36 128.379 95.68 128.379 94.88C128.419 94.08 128.339 93.52 128.139 93.2C127.939 92.88 127.659 92.8 127.259 93C126.859 93.2 126.579 93.56 126.339 94.12C126.139 94.64 126.019 95.32 125.979 96.12Z" fill="#009A1C"/>
<path d="M104.579 142.28C104.579 142.52 104.659 142.72 104.779 142.8C104.499 142.64 103.339 141.96 103.219 141.88C103.059 141.8 102.979 141.6 102.979 141.32V88.92C102.979 88.64 103.059 88.36 103.219 88.08L104.859 89C104.699 89.28 104.619 89.56 104.619 89.84V142.28H104.579Z" fill="#E0E0E0"/>
<path d="M153.3 119.36C153.3 119.4 153.26 119.4 153.26 119.44L131.02 112.4C129.26 111.64 127.22 112.24 126.22 113.88L102.46 149.2L101.58 149.72C101.3 149.88 101.06 149.88 100.9 149.8L125.34 113.4C126.34 111.76 128.42 111.16 130.14 111.92L153.3 119.36Z" fill="#009A1C"/>
<path opacity="0.4" d="M124.02 117.32L124.06 117.28L102.46 149.2L101.58 149.72C101.3 149.88 101.06 149.88 100.9 149.8L123.18 116.84L124.02 117.32Z" fill="white"/>
<path opacity="0.4" d="M153.3 119.36C153.3 119.4 153.26 119.4 153.26 119.44L131.02 112.4C129.26 111.64 127.22 112.24 126.22 113.88L125.34 113.36C126.34 111.76 128.38 111.12 130.14 111.88L153.3 119.36Z" fill="white"/>
<path d="M154.659 79.2C154.619 78.92 154.459 78.84 154.259 78.96C154.179 79 154.099 79.12 154.019 79.24L153.899 79.4L131.979 112.76L128.699 117.32C128.339 117.84 127.539 118.12 126.899 118L124.059 117.32L102.459 109.36C102.299 109.32 102.139 109.32 102.019 109.36C101.979 109.36 101.899 109.4 101.859 109.4L102.659 108.92L123.339 116.52L126.059 117.48C126.699 117.64 127.499 117.32 127.859 116.8L131.139 112.24L153.179 78.72C153.259 78.6 153.339 78.56 153.419 78.48L151.499 77.36L152.299 76.88L153.619 77.64C154.139 78 154.539 78.64 154.659 79.2Z" fill="#009A1C"/>
<path opacity="0.4" d="M131.94 112.76L128.66 117.32C128.3 117.84 127.5 118.12 126.86 118L124.02 117.32L124.06 117.28L124.18 117.08L126.02 117.52C126.66 117.68 127.46 117.36 127.82 116.84L131.06 112.32L131.94 112.76Z" fill="white"/>
<path opacity="0.1" d="M153.661 77.72L152.341 76.96L151.541 77.4L153.461 78.52C153.381 78.6 153.261 78.64 153.221 78.76L131.181 112.28L131.141 112.32L131.941 112.76L153.901 79.4L154.021 79.24C154.101 79.12 154.181 79.04 154.261 78.96C154.461 78.84 154.621 78.92 154.661 79.2C154.541 78.64 154.141 78 153.661 77.72Z" fill="black"/>
<path d="M102.9 110.04L98.1797 107.32V147.84C98.1797 148.48 98.6197 149.24 99.1797 149.56L100.3 150.2C100.86 150.52 101.74 150.52 102.3 150.2L102.86 149.88V110.04H102.9Z" fill="#009A1C"/>
<path opacity="0.15" d="M102.9 110.04L98.1797 107.32V147.84C98.1797 148.48 98.6197 149.24 99.1797 149.56L100.3 150.2C100.86 150.52 101.74 150.52 102.3 150.2L102.86 149.88V110.04H102.9Z" fill="black"/>
<path d="M154.66 79.48V118.84C154.66 119.16 154.54 119.52 154.34 119.84C154.18 120.12 153.98 120.36 153.74 120.52H153.7C153.66 120.52 153.66 120.56 153.62 120.56L102.26 150.2C101.98 150.36 101.74 150.36 101.58 150.28C101.42 150.2 101.3 150.04 101.26 149.8C101.26 149.76 101.26 149.68 101.26 149.6V110.24C101.26 109.6 101.78 109.2 102.38 109.36L123.98 117.32L126.82 118C127.46 118.16 128.26 117.84 128.62 117.32L131.9 112.76L153.82 79.4L153.94 79.24C154.38 78.72 154.66 78.84 154.66 79.48Z" fill="#009A1C"/>
<path d="M153.66 120.56C153.7 120.56 153.7 120.52 153.74 120.52L153.78 120.48C154.02 120.32 154.22 120.08 154.38 119.84C154.58 119.52 154.7 119.16 154.7 118.84L131.98 112.76L147.18 124.32L153.66 120.56Z" fill="#009A1C"/>
<path opacity="0.2" d="M153.66 120.56C153.7 120.56 153.7 120.52 153.74 120.52L153.78 120.48C154.02 120.32 154.22 120.08 154.38 119.84C154.58 119.52 154.7 119.16 154.7 118.84L131.98 112.76L147.18 124.32L153.66 120.56Z" fill="black"/>
<path d="M101.34 149.64C101.34 149.96 101.46 150.2 101.66 150.32C101.82 150.4 102.06 150.4 102.34 150.24L120.02 140.04L124.06 117.36L101.34 149V149.64Z" fill="#009A1C"/>
<path opacity="0.15" d="M126.219 113.84L101.619 150.28C101.419 150.16 101.299 149.96 101.299 149.64V149L125.299 113.4L126.219 113.84Z" fill="black"/>
<path d="M154.38 119.84C154.22 120.12 154.02 120.32 153.78 120.48L153.74 120.52L102.34 150.2C102.06 150.36 101.82 150.36 101.66 150.28L126.26 113.84C127.26 112.2 129.34 111.6 131.1 112.36L154.38 119.84Z" fill="#009A1C"/>
<path opacity="0.15" d="M98.3797 103.68L99.1797 104.16C99.0597 104.56 98.9797 104.92 98.9797 105.24C98.9797 106.32 98.9797 107.8 98.9797 107.8L98.1797 107.32C98.1797 107.32 98.1797 105.88 98.1797 104.76C98.1797 104.44 98.2597 104.04 98.3797 103.68Z" fill="black"/>
<path d="M102.66 108.96L101.86 109.4L101.02 108.96L98.9805 107.76L99.7805 107.32L102.66 108.96Z" fill="#009A1C"/>
<path opacity="0.1" d="M102.7 108.96L99.7805 107.32L98.9805 107.8L101.02 108.96L101.86 109.44C101.9 109.4 101.98 109.4 102.02 109.4C102.14 109.36 102.3 109.4 102.46 109.4L104.1 110L122.94 116.92L123.22 116.48L102.7 108.96Z" fill="black"/>
<path d="M58.5002 40.84L55.4602 42.6C55.4602 42.48 55.5002 42.32 55.5002 42.2V41.32C55.5002 39.76 54.3802 39.12 53.0202 39.88C52.4602 40.2 51.9802 40.72 51.5402 41.28C51.3002 39.32 49.7802 38.56 47.9002 39.64C45.8602 40.8 44.2202 43.68 44.2202 46.04V47.36C44.2202 47.96 44.3402 48.48 44.5402 48.88L42.0202 50.36C41.2602 50.8 40.6602 51.84 40.6602 52.72C40.6602 53.6 41.2602 53.96 42.0202 53.52L58.5002 44C59.2602 43.56 59.8602 42.52 59.8602 41.64C59.8602 40.76 59.2602 40.4 58.5002 40.84Z" fill="#F0F0F0"/>
<path d="M43.7402 30.8L39.9802 32.96C39.9802 32.8 40.0202 32.64 40.0202 32.48V31.4C40.0202 29.48 38.6602 28.68 36.9802 29.64C36.3002 30.04 35.6602 30.64 35.1802 31.36C34.9002 28.92 32.9802 28.04 30.7002 29.36C28.1802 30.8 26.1402 34.32 26.1402 37.2V38.84C26.1402 39.6 26.2602 40.24 26.5402 40.72L23.4202 42.52C22.5002 43.04 21.7402 44.36 21.7402 45.44C21.7402 46.52 22.5002 46.96 23.4202 46.4L43.7402 34.68C44.6602 34.16 45.4202 32.84 45.4202 31.76C45.4202 30.68 44.7002 30.24 43.7402 30.8Z" fill="#F0F0F0"/>
<path d="M162.5 65.88L176.62 56.84L182.86 58.84L162.5 65.88Z" fill="#009A1C"/>
<path d="M162.5 65.88L174.7 55.68L171.98 52.56L162.5 65.88Z" fill="#009A1C"/>
<path d="M174.7 55.68V58.04L162.5 65.88L174.7 55.68Z" fill="#009A1C"/>
<path opacity="0.25" d="M174.7 55.68V58.04L162.5 65.88L174.7 55.68Z" fill="black"/>
<path d="M176.741 55.48C176.661 55.48 176.581 55.44 176.501 55.4C176.381 55.28 176.381 55.08 176.501 54.96C176.941 54.56 177.301 54.16 177.661 53.68C177.781 53.56 177.941 53.52 178.101 53.64C178.221 53.76 178.261 53.92 178.141 54.08C177.781 54.56 177.381 55 176.901 55.4C176.901 55.48 176.821 55.48 176.741 55.48ZM179.021 52.52C178.981 52.52 178.941 52.52 178.901 52.48C178.741 52.4 178.701 52.24 178.781 52.08C179.141 51.4 179.381 50.64 179.581 49.88C179.621 49.72 179.781 49.6 179.941 49.64C180.101 49.68 180.221 49.84 180.181 50C179.981 50.8 179.701 51.6 179.341 52.32C179.221 52.44 179.101 52.52 179.021 52.52ZM180.101 48.28C179.941 48.28 179.781 48.12 179.781 47.96C179.781 47.8 179.781 47.64 179.781 47.48C179.781 46.88 179.741 46.24 179.621 45.64C179.581 45.48 179.701 45.32 179.861 45.28C180.021 45.24 180.181 45.36 180.221 45.52C180.341 46.16 180.381 46.8 180.381 47.48C180.381 47.64 180.381 47.84 180.381 48C180.381 48.16 180.261 48.28 180.101 48.28ZM179.461 43.96C179.341 43.96 179.221 43.88 179.181 43.76C178.941 43.04 178.621 42.32 178.221 41.64C178.141 41.48 178.181 41.32 178.341 41.24C178.501 41.16 178.661 41.2 178.741 41.36C179.141 42.08 179.501 42.84 179.741 43.6C179.781 43.76 179.701 43.92 179.541 44C179.501 43.96 179.501 43.96 179.461 43.96ZM177.341 40.12C177.261 40.12 177.181 40.08 177.101 40C176.621 39.4 176.101 38.8 175.541 38.24C175.421 38.12 175.421 37.92 175.541 37.8C175.661 37.68 175.861 37.68 175.981 37.8C176.581 38.36 177.141 39 177.621 39.6C177.741 39.72 177.701 39.92 177.581 40.04C177.461 40.08 177.421 40.12 177.341 40.12ZM174.221 37.04C174.141 37.04 174.101 37.04 174.021 36.96C173.421 36.48 172.741 36.04 172.061 35.64C171.901 35.56 171.861 35.36 171.941 35.24C172.021 35.08 172.221 35.04 172.341 35.12C173.061 35.52 173.741 36 174.381 36.48C174.501 36.56 174.541 36.76 174.421 36.92C174.381 37 174.301 37.04 174.221 37.04ZM142.781 35.88C142.661 35.88 142.581 35.84 142.501 35.72C142.421 35.56 142.461 35.4 142.621 35.32C143.301 34.92 144.021 34.56 144.781 34.2C144.941 34.12 145.101 34.2 145.181 34.36C145.261 34.52 145.181 34.68 145.021 34.76C144.301 35.08 143.581 35.48 142.901 35.88C142.901 35.88 142.821 35.88 142.781 35.88ZM170.461 34.8C170.421 34.8 170.381 34.8 170.341 34.76C169.621 34.4 168.901 34.08 168.181 33.8C168.021 33.76 167.941 33.56 168.021 33.4C168.061 33.24 168.261 33.16 168.421 33.24C169.181 33.52 169.901 33.84 170.661 34.2C170.821 34.28 170.861 34.44 170.781 34.6C170.661 34.72 170.541 34.8 170.461 34.8ZM146.741 33.96C146.621 33.96 146.501 33.88 146.461 33.76C146.381 33.6 146.461 33.44 146.621 33.36C147.381 33.08 148.141 32.8 148.901 32.56C149.061 32.52 149.221 32.6 149.261 32.76C149.301 32.92 149.221 33.08 149.061 33.12C148.301 33.36 147.541 33.6 146.821 33.88C146.821 33.96 146.781 33.96 146.741 33.96ZM166.341 33.16C166.301 33.16 166.301 33.16 166.261 33.16C165.501 32.92 164.741 32.72 163.981 32.56C163.821 32.52 163.701 32.36 163.741 32.2C163.781 32.04 163.941 31.92 164.101 31.96C164.901 32.12 165.661 32.32 166.461 32.56C166.621 32.6 166.701 32.76 166.661 32.92C166.621 33.08 166.501 33.16 166.341 33.16ZM150.941 32.68C150.821 32.68 150.661 32.6 150.661 32.44C150.621 32.28 150.741 32.12 150.901 32.08C151.701 31.88 152.501 31.76 153.301 31.64C153.461 31.6 153.621 31.72 153.661 31.88C153.701 32.04 153.581 32.2 153.421 32.24C152.621 32.36 151.861 32.52 151.101 32.68C150.981 32.68 150.981 32.68 150.941 32.68ZM162.061 32.2H162.021C161.261 32.08 160.461 32 159.661 31.96C159.501 31.96 159.381 31.8 159.381 31.64C159.381 31.48 159.541 31.36 159.701 31.36C160.501 31.4 161.301 31.48 162.101 31.6C162.261 31.64 162.381 31.76 162.341 31.96C162.341 32.12 162.221 32.2 162.061 32.2ZM155.301 32C155.141 32 155.021 31.88 155.021 31.72C155.021 31.56 155.141 31.4 155.301 31.4C156.101 31.32 156.901 31.32 157.741 31.28C157.901 31.28 158.021 31.4 158.061 31.56C158.061 31.72 157.941 31.88 157.781 31.88C156.901 31.92 156.101 31.92 155.301 32Z" fill="#E0E0E0"/>
</svg>
