<svg width="24" height="25" viewBox="0 0 24 25" fill="none" xmlns="http://www.w3.org/2000/svg">
<g clip-path="url(#clip0_2_2596)">
<path d="M13 1.50013C13 1.23492 13.1053 0.980562 13.2929 0.793025C13.4804 0.605489 13.7348 0.500132 14 0.500132C16.6512 0.503044 19.1931 1.55755 21.0678 3.43228C22.9425 5.30701 23.997 7.84886 24 10.5001C24 10.7654 23.8946 11.0197 23.7071 11.2072C23.5195 11.3948 23.2652 11.5001 23 11.5001C22.7347 11.5001 22.4804 11.3948 22.2929 11.2072C22.1053 11.0197 22 10.7654 22 10.5001C21.9976 8.37913 21.154 6.34568 19.6542 4.84591C18.1544 3.34613 16.121 2.50251 14 2.50013C13.7348 2.50013 13.4804 2.39478 13.2929 2.20724C13.1053 2.0197 13 1.76535 13 1.50013ZM14 6.50013C15.0608 6.50013 16.0782 6.92156 16.8284 7.67171C17.5785 8.42185 18 9.43927 18 10.5001C18 10.7654 18.1053 11.0197 18.2929 11.2072C18.4804 11.3948 18.7347 11.5001 19 11.5001C19.2652 11.5001 19.5195 11.3948 19.7071 11.2072C19.8946 11.0197 20 10.7654 20 10.5001C19.9984 8.90932 19.3657 7.38412 18.2409 6.25925C17.116 5.13437 15.5908 4.50172 14 4.50013C13.7348 4.50013 13.4804 4.60549 13.2929 4.79303C13.1053 4.98056 13 5.23492 13 5.50013C13 5.76535 13.1053 6.0197 13.2929 6.20724C13.4804 6.39478 13.7348 6.50013 14 6.50013ZM23.093 17.2391C23.6725 17.8202 23.9979 18.6074 23.9979 19.4281C23.9979 20.2488 23.6725 21.036 23.093 21.6171L22.183 22.6661C13.993 30.5071 -5.93701 10.5821 1.78298 2.36613L2.93298 1.36613C3.51475 0.802809 4.29491 0.491181 5.10468 0.498667C5.91445 0.506153 6.68872 0.832151 7.25998 1.40613C7.29098 1.43713 9.14398 3.84413 9.14398 3.84413C9.6938 4.42176 9.99988 5.18906 9.99858 5.98654C9.99727 6.78401 9.68869 7.55031 9.13698 8.12613L7.97898 9.58213C8.61982 11.1392 9.56204 12.5544 10.7515 13.7462C11.9409 14.9381 13.3542 15.8831 14.91 16.5271L16.375 15.3621C16.9509 14.8108 17.717 14.5026 18.5143 14.5015C19.3115 14.5004 20.0785 14.8065 20.656 15.3561C20.656 15.3561 23.062 17.2081 23.093 17.2391ZM21.717 18.6931C21.717 18.6931 19.324 16.8521 19.293 16.8211C19.0869 16.6169 18.8086 16.5023 18.5185 16.5023C18.2283 16.5023 17.95 16.6169 17.744 16.8211C17.717 16.8491 15.7 18.4561 15.7 18.4561C15.564 18.5643 15.4023 18.6352 15.2306 18.6619C15.0589 18.6885 14.8833 18.67 14.721 18.6081C12.7054 17.8577 10.8747 16.6829 9.35281 15.1632C7.83091 13.6436 6.65338 11.8146 5.89998 9.80013C5.83318 9.63559 5.8114 9.45622 5.83688 9.28047C5.86237 9.10472 5.93419 8.93893 6.04498 8.80013C6.04498 8.80013 7.65198 6.78213 7.67898 6.75613C7.88324 6.55012 7.99786 6.27175 7.99786 5.98163C7.99786 5.69152 7.88324 5.41315 7.67898 5.20713C7.64798 5.17713 5.80698 2.78213 5.80698 2.78213C5.59788 2.59464 5.32498 2.49423 5.04423 2.50148C4.76347 2.50873 4.49612 2.6231 4.29698 2.82113L3.14698 3.82113C-2.49501 10.6051 14.776 26.9181 20.721 21.3001L21.632 20.2501C21.8454 20.0524 21.9737 19.7794 21.9895 19.4888C22.0054 19.1983 21.9076 18.9129 21.717 18.6931Z" fill="#374957"/>
</g>
<defs>
<clipPath id="clip0_2_2596">
<rect width="24" height="24" fill="white" transform="translate(0 0.5)"/>
</clipPath>
</defs>
</svg>
