<svg width="81" height="68" viewBox="0 0 81 68" fill="none" xmlns="http://www.w3.org/2000/svg">
<path d="M63.2892 9.03431L56.1595 17.3765C52.0657 13.5187 46.5547 11.1499 40.5 11.1499C27.9015 11.1499 17.6499 21.4015 17.6499 34C17.6499 34.5078 17.6687 35.0125 17.7015 35.5125H22.7593C24.4484 35.5125 25.3515 37.5016 24.2422 38.7735L19.8609 43.7985L12.6156 52.111L10.5968 49.7954L0.988941 38.7735C-0.122001 37.5016 0.78269 35.5125 2.47176 35.5125H6.73115C6.70928 35.011 6.69678 34.5063 6.69678 34C6.69678 24.9703 10.2124 16.4812 16.5968 10.0968C22.9812 3.71242 31.4703 0.196777 40.5 0.196777C49.0141 0.196777 57.047 3.32491 63.2892 9.03431ZM78.5283 35.6047H74.2658C73.8752 44.0313 70.408 51.897 64.4033 57.9033C58.0189 64.2877 49.5298 67.8033 40.5 67.8033C32.7281 67.8033 25.3578 65.197 19.3828 60.3986L26.514 52.0564C30.3828 55.0595 35.236 56.8501 40.5 56.8501C52.5595 56.8501 62.4657 47.4579 63.2923 35.6047H58.2407C56.5517 35.6047 55.6485 33.6172 56.7579 32.3438L62.0173 26.3109L68.3845 19.0062L72.8455 24.1234L80.0111 32.3438C81.1221 33.6172 80.2174 35.6047 78.5283 35.6047Z" fill="#00AE30"/>
<path d="M56.1594 17.3765C52.0657 13.5187 46.5547 11.1499 40.5 11.1499V0.196777C49.0141 0.196777 57.0469 3.32491 63.2892 9.03431L56.1594 17.3765ZM78.5283 35.6047H74.2658C73.8751 44.0313 70.4079 51.897 64.4032 57.9033C58.0188 64.2877 49.5297 67.8033 40.5 67.8033V56.8501C52.5594 56.8501 62.4657 47.4579 63.2923 35.6047H58.2407C56.5516 35.6047 55.6485 33.6172 56.7579 32.3438L62.0173 26.3109L68.3845 19.0062L72.8454 24.1234L80.0111 32.3438C81.122 33.6172 80.2173 35.6047 78.5283 35.6047Z" fill="#068F2C"/>
</svg>
