<svg width="30" height="30" viewBox="0 0 30 30" fill="none" xmlns="http://www.w3.org/2000/svg">
<path d="M15 0C6.71202 0 0 6.72152 0 15C0 23.2785 6.72151 30 15 30C23.288 30 30 23.2785 30 15C30 6.72152 23.288 0 15 0ZM15 3.66456C17.3639 3.66456 19.2722 5.58228 19.2722 7.93671C19.2722 10.3006 17.3544 12.2089 15 12.2089C12.6361 12.2089 10.7278 10.2911 10.7278 7.93671C10.7278 5.57278 12.6361 3.66456 15 3.66456ZM20.8481 23.6867H9.15192C8.00318 23.6867 7.0728 22.7563 7.0728 21.6076C7.0728 17.231 10.6234 13.6804 15 13.6804C19.3766 13.6804 22.9273 17.231 22.9273 21.6076C22.9273 22.7468 21.9969 23.6867 20.8481 23.6867Z" fill="#B3B3B3"/>
<path d="M15 0C6.71202 0 0 6.72152 0 15C0 23.2785 6.72151 30 15 30C23.288 30 30 23.2785 30 15C30 6.72152 23.288 0 15 0ZM15 3.66456C17.3639 3.66456 19.2722 5.58228 19.2722 7.93671C19.2722 10.3006 17.3544 12.2089 15 12.2089C12.6361 12.2089 10.7278 10.2911 10.7278 7.93671C10.7278 5.57278 12.6361 3.66456 15 3.66456ZM20.8481 23.6867H9.15192C8.00318 23.6867 7.0728 22.7563 7.0728 21.6076C7.0728 17.231 10.6234 13.6804 15 13.6804C19.3766 13.6804 22.9273 17.231 22.9273 21.6076C22.9273 22.7468 21.9969 23.6867 20.8481 23.6867Z" fill="#2B3B3E"/>
</svg>
