<svg width="11" height="6" viewBox="0 0 11 6" fill="none" xmlns="http://www.w3.org/2000/svg">
<path d="M1.07715 2.69231C0.907215 2.69231 0.769456 2.83007 0.769456 3C0.769456 3.16993 0.907215 3.30769 1.07715 3.30769L1.07715 2.69231ZM10.5255 3.21757C10.6456 3.09741 10.6456 2.90259 10.5255 2.78243L8.56735 0.824286C8.44719 0.704125 8.25237 0.704125 8.1322 0.824286C8.01204 0.944447 8.01204 1.13927 8.1322 1.25943L9.87278 3L8.1322 4.74057C8.01204 4.86073 8.01204 5.05555 8.1322 5.17571C8.25237 5.29587 8.44719 5.29587 8.56735 5.17571L10.5255 3.21757ZM1.07715 3.30769L10.3079 3.30769L10.3079 2.69231L1.07715 2.69231L1.07715 3.30769Z" fill="white"/>
</svg>
