<svg width="11" height="6" viewBox="0 0 11 6" fill="none" xmlns="http://www.w3.org/2000/svg">
<path d="M9.92285 2.69231C10.0928 2.69231 10.2305 2.83007 10.2305 3C10.2305 3.16993 10.0928 3.30769 9.92285 3.30769L9.92285 2.69231ZM0.474511 3.21757C0.35435 3.09741 0.35435 2.90259 0.474511 2.78243L2.43265 0.824286C2.55281 0.704125 2.74763 0.704125 2.8678 0.824286C2.98796 0.944447 2.98796 1.13927 2.8678 1.25943L1.12722 3L2.8678 4.74057C2.98796 4.86073 2.98796 5.05555 2.8678 5.17571C2.74763 5.29587 2.55281 5.29587 2.43265 5.17571L0.474511 3.21757ZM9.92285 3.30769L0.692082 3.30769L0.692082 2.69231L9.92285 2.69231L9.92285 3.30769Z" fill="white"/>
</svg>
