<svg width="24" height="25" viewBox="0 0 24 25" fill="none" xmlns="http://www.w3.org/2000/svg">
<path fill-rule="evenodd" clip-rule="evenodd" d="M6.99982 3.75009C7.41403 3.75009 7.74982 4.08588 7.74982 4.50009V6.16772C10.5775 5.91589 13.4221 5.91589 16.2498 6.16772V4.50009C16.2498 4.08588 16.5856 3.75009 16.9998 3.75009C17.414 3.75009 17.7498 4.08588 17.7498 4.50009V6.31653C19.2428 6.52763 20.4224 7.70856 20.622 9.21493L20.7086 9.86788C21.0726 12.6142 21.0412 15.3985 20.6152 18.136C20.4042 19.492 19.3026 20.5336 17.9368 20.6682L16.7438 20.7859C13.5888 21.097 10.4108 21.097 7.25575 20.7859L6.06274 20.6682C4.697 20.5336 3.59534 19.492 3.38433 18.136C2.95837 15.3985 2.92693 12.6142 3.29097 9.86788L3.37752 9.21493C3.5772 7.70854 4.75675 6.5276 6.24982 6.31652V4.50009C6.24982 4.08588 6.58561 3.75009 6.99982 3.75009ZM7.44498 7.70289C10.4742 7.40417 13.5254 7.40417 16.5546 7.70289L17.46 7.79219C18.3268 7.87766 19.0206 8.54863 19.135 9.41203L19.2216 10.065C19.2518 10.2931 19.2792 10.5215 19.3037 10.7501H4.69588C4.72037 10.5215 4.74772 10.2931 4.77796 10.065L4.86451 9.41203C4.97896 8.54863 5.67278 7.87766 6.53953 7.79219L7.44498 7.70289ZM4.57665 12.2501C4.47847 14.1382 4.5752 16.0333 4.86649 17.9053C4.97233 18.5855 5.52491 19.1079 6.20995 19.1755L7.40296 19.2931C10.4601 19.5946 13.5395 19.5946 16.5966 19.2931L17.7896 19.1755C18.4746 19.1079 19.0272 18.5855 19.1331 17.9053C19.4244 16.0333 19.5211 14.1382 19.4229 12.2501H4.57665Z" fill="#8190A1"/>
</svg>
