<svg width="24" height="24" viewBox="0 0 24 24" fill="none" xmlns="http://www.w3.org/2000/svg">
<path fill-rule="evenodd" clip-rule="evenodd" d="M7.25 10.0001C7.25 7.37674 9.37665 5.25009 12 5.25009C14.6233 5.25009 16.75 7.37674 16.75 10.0001C16.75 12.6235 14.6233 14.7501 12 14.7501C9.37665 14.7501 7.25 12.6235 7.25 10.0001ZM12 6.75009C10.2051 6.75009 8.75 8.20516 8.75 10.0001C8.75 11.795 10.2051 13.2501 12 13.2501C13.7949 13.2501 15.25 11.795 15.25 10.0001C15.25 8.20516 13.7949 6.75009 12 6.75009Z" fill="#8190A1"/>
<path fill-rule="evenodd" clip-rule="evenodd" d="M3.52439 8.85694C3.87872 4.55833 7.47087 1.25009 11.784 1.25009H12.216C16.5292 1.25009 20.1213 4.55833 20.4756 8.85694C20.666 11.1661 19.9527 13.459 18.486 15.2527L13.693 21.1145C12.818 22.1846 11.182 22.1846 10.307 21.1145L5.51399 15.2527C4.04733 13.459 3.33405 11.1661 3.52439 8.85694ZM11.784 2.75009C8.25152 2.75009 5.30951 5.45957 5.01932 8.98017C4.8609 10.902 5.45455 12.8103 6.67521 14.3032L11.4682 20.165C11.7431 20.5011 12.2569 20.5011 12.5318 20.165L17.3248 14.3032C18.5455 12.8103 19.1391 10.902 18.9807 8.98017C18.6905 5.45957 15.7485 2.75009 12.216 2.75009H11.784Z" fill="#8190A1"/>
</svg>
