<svg width="203" height="51" viewBox="0 0 203 51" fill="none" xmlns="http://www.w3.org/2000/svg">
<rect x="1.69344" y="1.20125" width="199.614" height="48.1187" rx="24.0594" stroke="#CFD9E5" stroke-width="2.4025"/>
<rect x="5.16016" y="4.66772" width="95.1392" height="41.1858" rx="20.5929" fill="#00AE30"/>
<path d="M27.8779 37.9434C25.7428 37.9434 23.9181 37.5835 22.4038 36.8635C20.8894 36.1187 19.7226 34.9892 18.9033 33.4748C18.0841 31.9356 17.6248 30.0116 17.5255 27.7028C17.5006 26.6104 17.4882 25.5677 17.4882 24.5747C17.4882 23.5568 17.5006 22.5017 17.5255 21.4094C17.6248 19.1254 18.0965 17.2262 18.9405 15.7119C19.8095 14.1726 21.0011 13.0307 22.5155 12.2859C24.0547 11.5163 25.8421 11.1315 27.8779 11.1315C29.8888 11.1315 31.6514 11.5163 33.1658 12.2859C34.705 13.0307 35.909 14.1726 36.7779 15.7119C37.6469 17.2262 38.1185 19.1254 38.193 21.4094C38.2427 22.5017 38.2675 23.5568 38.2675 24.5747C38.2675 25.5677 38.2427 26.6104 38.193 27.7028C38.1185 30.0116 37.6593 31.9356 36.8152 33.4748C35.9959 34.9892 34.8291 36.1187 33.3147 36.8635C31.8004 37.5835 29.9881 37.9434 27.8779 37.9434ZM27.8779 34.7781C29.7646 34.7781 31.3038 34.2071 32.4955 33.0651C33.712 31.9232 34.3698 30.0736 34.4691 27.5166C34.5188 26.3994 34.5436 25.4064 34.5436 24.5375C34.5436 23.6437 34.5188 22.6507 34.4691 21.5584C34.4195 19.8454 34.0968 18.4551 33.5009 17.3876C32.9299 16.3201 32.1603 15.5381 31.1921 15.0416C30.2239 14.545 29.1192 14.2968 27.8779 14.2968C26.6366 14.2968 25.5318 14.545 24.5636 15.0416C23.5954 15.5381 22.8134 16.3201 22.2176 17.3876C21.6466 18.4551 21.3238 19.8454 21.2494 21.5584C21.2245 22.6507 21.2121 23.6437 21.2121 24.5375C21.2121 25.4064 21.2245 26.3994 21.2494 27.5166C21.3487 30.0736 22.0065 31.9232 23.223 33.0651C24.4395 34.2071 25.9911 34.7781 27.8779 34.7781ZM44.5518 37.571C44.2788 37.571 44.0677 37.4966 43.9188 37.3476C43.7698 37.1738 43.6953 36.9628 43.6953 36.7146V12.3976C43.6953 12.1245 43.7698 11.9135 43.9188 11.7645C44.0677 11.5908 44.2788 11.5039 44.5518 11.5039H53.6381C56.4434 11.5039 58.6654 12.1618 60.3039 13.4775C61.9424 14.7933 62.7616 16.7421 62.7616 19.324C62.7616 21.2356 62.2775 22.7996 61.3093 24.0161C60.3659 25.2078 59.075 26.0394 57.4365 26.5111L63.1713 36.4166C63.2457 36.5656 63.283 36.7021 63.283 36.8263C63.283 37.0249 63.1961 37.1987 63.0223 37.3476C62.8733 37.4966 62.6996 37.571 62.501 37.571H60.7135C60.2915 37.571 59.9811 37.4593 59.7825 37.2359C59.5839 37.0125 59.4101 36.789 59.2612 36.5656L53.8615 27.1069H47.3448V36.7146C47.3448 36.9628 47.2579 37.1738 47.0841 37.3476C46.9351 37.4966 46.7241 37.571 46.451 37.571H44.5518ZM47.3448 23.9416H53.4892C55.3511 23.9416 56.7413 23.5568 57.6599 22.7872C58.5785 21.9928 59.0377 20.826 59.0377 19.2868C59.0377 17.7724 58.5785 16.618 57.6599 15.8236C56.7662 15.0291 55.3759 14.6319 53.4892 14.6319H47.3448V23.9416ZM77.5565 37.9434C75.347 37.9434 73.4726 37.5338 71.9334 36.7146C70.4191 35.8953 69.2522 34.7409 68.433 33.2513C67.6386 31.7618 67.1917 30.0116 67.0924 28.0007C67.0676 26.9083 67.0551 25.7539 67.0551 24.5375C67.0551 23.2962 67.0676 22.1169 67.0924 20.9998C67.1917 18.9889 67.6386 17.2511 68.433 15.7863C69.2522 14.2968 70.4315 13.1548 71.9707 12.3604C73.5099 11.5411 75.3718 11.1315 77.5565 11.1315C79.2943 11.1315 80.8087 11.3797 82.0996 11.8763C83.3906 12.3728 84.4457 13.0058 85.2649 13.7754C86.109 14.5202 86.7297 15.3022 87.1269 16.1215C87.5489 16.9407 87.7723 17.6607 87.7972 18.2813C87.822 18.5048 87.7599 18.691 87.611 18.8399C87.462 18.964 87.2634 19.0261 87.0152 19.0261H84.8181C84.5698 19.0261 84.3836 18.9765 84.2595 18.8772C84.1602 18.7779 84.0609 18.6041 83.9616 18.3558C83.7381 17.7103 83.3658 17.0773 82.8444 16.4566C82.3479 15.836 81.6652 15.3271 80.7963 14.9298C79.9522 14.5078 78.8723 14.2968 77.5565 14.2968C75.5704 14.2968 73.9692 14.8305 72.7527 15.898C71.561 16.9656 70.9156 18.7282 70.8163 21.186C70.7418 23.3955 70.7418 25.605 70.8163 27.8145C70.9156 30.2971 71.5735 32.0845 72.7899 33.1769C74.0064 34.2444 75.5952 34.7781 77.5565 34.7781C78.8723 34.7781 80.0391 34.5299 81.0569 34.0334C82.0996 33.5368 82.9189 32.7921 83.5147 31.799C84.1105 30.7812 84.4084 29.4902 84.4084 27.9262V26.3622H78.8226C78.5744 26.3622 78.3633 26.2877 78.1896 26.1387C78.0406 25.9649 77.9661 25.7415 77.9661 25.4684V24.2768C77.9661 24.0037 78.0406 23.7927 78.1896 23.6437C78.3633 23.4699 78.5744 23.3831 78.8226 23.3831H87.2386C87.5117 23.3831 87.7227 23.4699 87.8716 23.6437C88.0206 23.7927 88.0951 24.0037 88.0951 24.2768V27.8517C88.0951 29.8874 87.673 31.6625 86.829 33.1769C86.0097 34.6912 84.8057 35.8705 83.2168 36.7146C81.6279 37.5338 79.7412 37.9434 77.5565 37.9434Z" fill="white"/>
<path d="M109.198 37.571C108.925 37.571 108.714 37.4966 108.565 37.3476C108.416 37.1738 108.341 36.9628 108.341 36.7146V12.3604C108.341 12.1121 108.416 11.9135 108.565 11.7645C108.714 11.5908 108.925 11.5039 109.198 11.5039H111.171C111.445 11.5039 111.656 11.5908 111.805 11.7645C111.954 11.9135 112.028 12.1121 112.028 12.3604V36.7146C112.028 36.9628 111.954 37.1738 111.805 37.3476C111.656 37.4966 111.445 37.571 111.171 37.571H109.198ZM119.38 37.571C119.107 37.571 118.896 37.4966 118.747 37.3476C118.598 37.1738 118.524 36.9628 118.524 36.7146V12.3976C118.524 12.1245 118.598 11.9135 118.747 11.7645C118.896 11.5908 119.107 11.5039 119.38 11.5039H121.093C121.391 11.5039 121.615 11.5783 121.764 11.7273C121.913 11.8514 121.999 11.9507 122.024 12.0252L134.388 31.017V12.3976C134.388 12.1245 134.462 11.9135 134.611 11.7645C134.76 11.5908 134.971 11.5039 135.244 11.5039H137.032C137.305 11.5039 137.516 11.5908 137.665 11.7645C137.838 11.9135 137.925 12.1245 137.925 12.3976V36.6773C137.925 36.9256 137.838 37.1366 137.665 37.3104C137.516 37.4842 137.317 37.571 137.069 37.571H135.281C135.008 37.571 134.797 37.4966 134.648 37.3476C134.524 37.1987 134.437 37.0994 134.388 37.0497L122.062 18.2441V36.7146C122.062 36.9628 121.975 37.1738 121.801 37.3476C121.652 37.4966 121.441 37.571 121.168 37.571H119.38ZM145.273 37.571C145 37.571 144.789 37.4966 144.64 37.3476C144.491 37.1738 144.416 36.9628 144.416 36.7146V12.3976C144.416 12.1245 144.491 11.9135 144.64 11.7645C144.789 11.5908 145 11.5039 145.273 11.5039H160.466C160.739 11.5039 160.95 11.5908 161.099 11.7645C161.273 11.9135 161.36 12.1245 161.36 12.3976V13.8872C161.36 14.1602 161.273 14.3713 161.099 14.5202C160.95 14.6692 160.739 14.7436 160.466 14.7436H148.029V23.4203H159.722C159.995 23.4203 160.206 23.5072 160.355 23.681C160.528 23.8299 160.615 24.0409 160.615 24.314V25.8036C160.615 26.0518 160.528 26.2629 160.355 26.4366C160.206 26.5856 159.995 26.6601 159.722 26.6601H148.029V36.7146C148.029 36.9628 147.942 37.1738 147.768 37.3476C147.619 37.4966 147.408 37.571 147.135 37.571H145.273ZM175.366 37.9434C173.231 37.9434 171.406 37.5835 169.892 36.8635C168.377 36.1187 167.21 34.9892 166.391 33.4748C165.572 31.9356 165.113 30.0116 165.013 27.7028C164.988 26.6104 164.976 25.5677 164.976 24.5747C164.976 23.5568 164.988 22.5017 165.013 21.4094C165.113 19.1254 165.584 17.2262 166.428 15.7119C167.297 14.1726 168.489 13.0307 170.003 12.2859C171.543 11.5163 173.33 11.1315 175.366 11.1315C177.377 11.1315 179.139 11.5163 180.654 12.2859C182.193 13.0307 183.397 14.1726 184.266 15.7119C185.135 17.2262 185.606 19.1254 185.681 21.4094C185.73 22.5017 185.755 23.5568 185.755 24.5747C185.755 25.5677 185.73 26.6104 185.681 27.7028C185.606 30.0116 185.147 31.9356 184.303 33.4748C183.484 34.9892 182.317 36.1187 180.803 36.8635C179.288 37.5835 177.476 37.9434 175.366 37.9434ZM175.366 34.7781C177.252 34.7781 178.792 34.2071 179.983 33.0651C181.2 31.9232 181.858 30.0736 181.957 27.5166C182.007 26.3994 182.031 25.4064 182.031 24.5375C182.031 23.6437 182.007 22.6507 181.957 21.5584C181.907 19.8454 181.585 18.4551 180.989 17.3876C180.418 16.3201 179.648 15.5381 178.68 15.0416C177.712 14.545 176.607 14.2968 175.366 14.2968C174.124 14.2968 173.02 14.545 172.051 15.0416C171.083 15.5381 170.301 16.3201 169.705 17.3876C169.134 18.4551 168.812 19.8454 168.737 21.5584C168.712 22.6507 168.7 23.6437 168.7 24.5375C168.7 25.4064 168.712 26.3994 168.737 27.5166C168.836 30.0736 169.494 31.9232 170.711 33.0651C171.927 34.2071 173.479 34.7781 175.366 34.7781Z" fill="#404955"/>
</svg>