<svg width="24" height="24" viewBox="0 0 24 24" fill="none" xmlns="http://www.w3.org/2000/svg">
<path d="M18.8746 13.75C18.662 13.75 18.484 13.6781 18.3404 13.5344C18.1968 13.3906 18.125 13.2125 18.125 13V10.75H15.875C15.6625 10.75 15.4844 10.6781 15.3406 10.5343C15.1969 10.3905 15.125 10.2123 15.125 9.99968C15.125 9.78708 15.1969 9.60899 15.3406 9.4654C15.4844 9.32182 15.6625 9.25003 15.875 9.25003H18.125V7C18.125 6.7875 18.1969 6.60938 18.3407 6.46563C18.4845 6.32189 18.6627 6.25003 18.8753 6.25003C19.0879 6.25003 19.266 6.32189 19.4096 6.46563C19.5532 6.60938 19.625 6.7875 19.625 7V9.25003H21.875C22.0875 9.25003 22.2656 9.32193 22.4093 9.46573C22.5531 9.60954 22.625 9.78774 22.625 10.0003C22.625 10.2129 22.5531 10.391 22.4093 10.5346C22.2656 10.6782 22.0875 10.75 21.875 10.75H19.625V13C19.625 13.2125 19.553 13.3906 19.4092 13.5344C19.2654 13.6781 19.0872 13.75 18.8746 13.75ZM8.87498 11.6923C7.91248 11.6923 7.08853 11.3496 6.40313 10.6642C5.71771 9.97876 5.375 9.15481 5.375 8.19233C5.375 7.22983 5.71771 6.40588 6.40313 5.72048C7.08853 5.03506 7.91248 4.69235 8.87498 4.69235C9.83746 4.69235 10.6614 5.03506 11.3468 5.72048C12.0322 6.40588 12.3749 7.22983 12.3749 8.19233C12.3749 9.15481 12.0322 9.97876 11.3468 10.6642C10.6614 11.3496 9.83746 11.6923 8.87498 11.6923ZM2.27885 19.3077C2.02275 19.3077 1.80808 19.221 1.63485 19.0478C1.46162 18.8745 1.375 18.6599 1.375 18.4038V17.0846C1.375 16.5949 1.50802 16.1414 1.77405 15.7241C2.04007 15.3068 2.39551 14.9859 2.84038 14.7616C3.82884 14.2769 4.82595 13.9135 5.8317 13.6712C6.83747 13.4289 7.85189 13.3077 8.87498 13.3077C9.89804 13.3077 10.9125 13.4289 11.9182 13.6712C12.924 13.9135 13.9211 14.2769 14.9096 14.7616C15.3544 14.9859 15.7099 15.3068 15.9759 15.7241C16.2419 16.1414 16.3749 16.5949 16.3749 17.0846V18.4038C16.3749 18.6599 16.2883 18.8745 16.1151 19.0478C15.9418 19.221 15.7272 19.3077 15.4711 19.3077H2.27885ZM2.87498 17.8077H14.875V17.0846C14.875 16.882 14.8163 16.6945 14.699 16.5221C14.5817 16.3497 14.4224 16.209 14.2211 16.1C13.3596 15.6756 12.4811 15.3542 11.5857 15.1356C10.6902 14.917 9.78668 14.8077 8.87498 14.8077C7.96326 14.8077 7.05969 14.917 6.16428 15.1356C5.26884 15.3542 4.39036 15.6756 3.52883 16.1C3.32754 16.209 3.16824 16.3497 3.05093 16.5221C2.93363 16.6945 2.87498 16.882 2.87498 17.0846V17.8077ZM8.87498 10.1923C9.42498 10.1923 9.89581 9.99649 10.2875 9.60483C10.6791 9.21316 10.875 8.74233 10.875 8.19233C10.875 7.64233 10.6791 7.17149 10.2875 6.77983C9.89581 6.38816 9.42498 6.19233 8.87498 6.19233C8.32498 6.19233 7.85414 6.38816 7.46248 6.77983C7.07081 7.17149 6.87498 7.64233 6.87498 8.19233C6.87498 8.74233 7.07081 9.21316 7.46248 9.60483C7.85414 9.99649 8.32498 10.1923 8.87498 10.1923Z" fill="#404955"/>
</svg>
