<svg width="33" height="32" viewBox="0 0 33 32" fill="none" xmlns="http://www.w3.org/2000/svg">
<path fill-rule="evenodd" clip-rule="evenodd" d="M19.4872 20.5943C15.9535 23.4245 10.7809 23.2017 7.50518 19.926C3.99046 16.4113 3.99046 10.7129 7.50518 7.19814C11.0199 3.68342 16.7184 3.68342 20.2331 7.19814C23.5088 10.4739 23.7316 15.6464 20.9013 19.1801L27.7756 26.0543C28.1661 26.4448 28.1661 27.078 27.7756 27.4685C27.3851 27.8591 26.7519 27.8591 26.3613 27.4685L19.4872 20.5943ZM8.91939 18.5119C6.18573 15.7781 6.18573 11.346 8.91939 8.61236C11.6531 5.87869 16.0852 5.87869 18.8189 8.61236C21.5505 11.344 21.5525 15.7716 18.8249 18.5059C18.8229 18.5079 18.8209 18.5097 18.8188 18.5119C18.8168 18.5139 18.8148 18.5159 18.8129 18.5179C16.0787 21.2455 11.6511 21.2435 8.91939 18.5119Z" fill="#AFB7C4"/>
</svg>
