<svg width="24" height="25" viewBox="0 0 24 25" fill="none" xmlns="http://www.w3.org/2000/svg">
<g clip-path="url(#clip0_2_3097)">
<path d="M19 4.50012H17.9C17.6679 3.37153 17.0538 2.35747 16.1613 1.62884C15.2687 0.900212 14.1522 0.501577 13 0.500122L11 0.500122C9.8478 0.501577 8.73132 0.900212 7.83875 1.62884C6.94618 2.35747 6.3321 3.37153 6.1 4.50012H5C3.67441 4.50171 2.40356 5.029 1.46622 5.96634C0.528882 6.90368 0.00158786 8.17453 0 9.50012L0 19.5001C0.00158786 20.8257 0.528882 22.0966 1.46622 23.0339C2.40356 23.9712 3.67441 24.4985 5 24.5001H19C20.3256 24.4985 21.5964 23.9712 22.5338 23.0339C23.4711 22.0966 23.9984 20.8257 24 19.5001V9.50012C23.9984 8.17453 23.4711 6.90368 22.5338 5.96634C21.5964 5.029 20.3256 4.50171 19 4.50012ZM11 2.50012H13C13.6183 2.50269 14.2206 2.69621 14.7247 3.05421C15.2288 3.41221 15.6099 3.91721 15.816 4.50012H8.184C8.39008 3.91721 8.77123 3.41221 9.2753 3.05421C9.77937 2.69621 10.3817 2.50269 11 2.50012ZM5 6.50012H19C19.7956 6.50012 20.5587 6.81619 21.1213 7.3788C21.6839 7.94141 22 8.70447 22 9.50012V12.5001H2V9.50012C2 8.70447 2.31607 7.94141 2.87868 7.3788C3.44129 6.81619 4.20435 6.50012 5 6.50012ZM19 22.5001H5C4.20435 22.5001 3.44129 22.1841 2.87868 21.6214C2.31607 21.0588 2 20.2958 2 19.5001V14.5001H11V15.5001C11 15.7653 11.1054 16.0197 11.2929 16.2072C11.4804 16.3948 11.7348 16.5001 12 16.5001C12.2652 16.5001 12.5196 16.3948 12.7071 16.2072C12.8946 16.0197 13 15.7653 13 15.5001V14.5001H22V19.5001C22 20.2958 21.6839 21.0588 21.1213 21.6214C20.5587 22.1841 19.7956 22.5001 19 22.5001Z" fill="#404955"/>
</g>
<defs>
<clipPath id="clip0_2_3097">
<rect width="24" height="24" fill="white" transform="translate(0 0.500122)"/>
</clipPath>
</defs>
</svg>
