<svg width="24" height="25" viewBox="0 0 24 25" fill="none" xmlns="http://www.w3.org/2000/svg">
<g clip-path="url(#clip0_1_1562)">
<path d="M7 14.5001C7 14.7653 6.89464 15.0197 6.70711 15.2072C6.51957 15.3947 6.26522 15.5001 6 15.5001H5C4.73478 15.5001 4.48043 15.3947 4.29289 15.2072C4.10536 15.0197 4 14.7653 4 14.5001C4 14.2349 4.10536 13.9805 4.29289 13.793C4.48043 13.6054 4.73478 13.5001 5 13.5001H6C6.26522 13.5001 6.51957 13.6054 6.70711 13.793C6.89464 13.9805 7 14.2349 7 14.5001ZM11 13.5001H10C9.73478 13.5001 9.48043 13.6054 9.29289 13.793C9.10536 13.9805 9 14.2349 9 14.5001C9 14.7653 9.10536 15.0197 9.29289 15.2072C9.48043 15.3947 9.73478 15.5001 10 15.5001H11C11.2652 15.5001 11.5196 15.3947 11.7071 15.2072C11.8946 15.0197 12 14.7653 12 14.5001C12 14.2349 11.8946 13.9805 11.7071 13.793C11.5196 13.6054 11.2652 13.5001 11 13.5001ZM6 17.5001H5C4.73478 17.5001 4.48043 17.6054 4.29289 17.793C4.10536 17.9805 4 18.2349 4 18.5001C4 18.7653 4.10536 19.0197 4.29289 19.2072C4.48043 19.3947 4.73478 19.5001 5 19.5001H6C6.26522 19.5001 6.51957 19.3947 6.70711 19.2072C6.89464 19.0197 7 18.7653 7 18.5001C7 18.2349 6.89464 17.9805 6.70711 17.793C6.51957 17.6054 6.26522 17.5001 6 17.5001ZM11 17.5001H10C9.73478 17.5001 9.48043 17.6054 9.29289 17.793C9.10536 17.9805 9 18.2349 9 18.5001C9 18.7653 9.10536 19.0197 9.29289 19.2072C9.48043 19.3947 9.73478 19.5001 10 19.5001H11C11.2652 19.5001 11.5196 19.3947 11.7071 19.2072C11.8946 19.0197 12 18.7653 12 18.5001C12 18.2349 11.8946 17.9805 11.7071 17.793C11.5196 17.6054 11.2652 17.5001 11 17.5001ZM6 5.50009H5C4.73478 5.50009 4.48043 5.60545 4.29289 5.79298C4.10536 5.98052 4 6.23488 4 6.50009C4 6.76531 4.10536 7.01966 4.29289 7.2072C4.48043 7.39473 4.73478 7.50009 5 7.50009H6C6.26522 7.50009 6.51957 7.39473 6.70711 7.2072C6.89464 7.01966 7 6.76531 7 6.50009C7 6.23488 6.89464 5.98052 6.70711 5.79298C6.51957 5.60545 6.26522 5.50009 6 5.50009ZM11 5.50009H10C9.73478 5.50009 9.48043 5.60545 9.29289 5.79298C9.10536 5.98052 9 6.23488 9 6.50009C9 6.76531 9.10536 7.01966 9.29289 7.2072C9.48043 7.39473 9.73478 7.50009 10 7.50009H11C11.2652 7.50009 11.5196 7.39473 11.7071 7.2072C11.8946 7.01966 12 6.76531 12 6.50009C12 6.23488 11.8946 5.98052 11.7071 5.79298C11.5196 5.60545 11.2652 5.50009 11 5.50009ZM6 9.50009H5C4.73478 9.50009 4.48043 9.60545 4.29289 9.79298C4.10536 9.98052 4 10.2349 4 10.5001C4 10.7653 4.10536 11.0197 4.29289 11.2072C4.48043 11.3947 4.73478 11.5001 5 11.5001H6C6.26522 11.5001 6.51957 11.3947 6.70711 11.2072C6.89464 11.0197 7 10.7653 7 10.5001C7 10.2349 6.89464 9.98052 6.70711 9.79298C6.51957 9.60545 6.26522 9.50009 6 9.50009ZM11 9.50009H10C9.73478 9.50009 9.48043 9.60545 9.29289 9.79298C9.10536 9.98052 9 10.2349 9 10.5001C9 10.7653 9.10536 11.0197 9.29289 11.2072C9.48043 11.3947 9.73478 11.5001 10 11.5001H11C11.2652 11.5001 11.5196 11.3947 11.7071 11.2072C11.8946 11.0197 12 10.7653 12 10.5001C12 10.2349 11.8946 9.98052 11.7071 9.79298C11.5196 9.60545 11.2652 9.50009 11 9.50009ZM24 10.5001V19.5001C23.9984 20.8257 23.4711 22.0965 22.5338 23.0339C21.5964 23.9712 20.3256 24.4985 19 24.5001H5C3.67441 24.4985 2.40356 23.9712 1.46622 23.0339C0.528882 22.0965 0.00158786 20.8257 0 19.5001L0 5.50009C0.00158786 4.1745 0.528882 2.90365 1.46622 1.96631C2.40356 1.02897 3.67441 0.501679 5 0.500092L11 0.500092C12.3256 0.501679 13.5964 1.02897 14.5338 1.96631C15.4711 2.90365 15.9984 4.1745 16 5.50009H19C20.3256 5.50168 21.5964 6.02897 22.5338 6.96631C23.4711 7.90365 23.9984 9.1745 24 10.5001ZM5 22.5001H14V5.50009C14 4.70444 13.6839 3.94138 13.1213 3.37877C12.5587 2.81616 11.7956 2.50009 11 2.50009H5C4.20435 2.50009 3.44129 2.81616 2.87868 3.37877C2.31607 3.94138 2 4.70444 2 5.50009V19.5001C2 20.2957 2.31607 21.0588 2.87868 21.6214C3.44129 22.184 4.20435 22.5001 5 22.5001ZM22 10.5001C22 9.70444 21.6839 8.94138 21.1213 8.37877C20.5587 7.81616 19.7956 7.50009 19 7.50009H16V22.5001H19C19.7956 22.5001 20.5587 22.184 21.1213 21.6214C21.6839 21.0588 22 20.2957 22 19.5001V10.5001ZM19 13.5001C18.8022 13.5001 18.6089 13.5587 18.4444 13.6686C18.28 13.7785 18.1518 13.9347 18.0761 14.1174C18.0004 14.3001 17.9806 14.5012 18.0192 14.6952C18.0578 14.8892 18.153 15.0673 18.2929 15.2072C18.4327 15.3471 18.6109 15.4423 18.8049 15.4809C18.9989 15.5195 19.2 15.4997 19.3827 15.424C19.5654 15.3483 19.7216 15.2201 19.8315 15.0557C19.9414 14.8912 20 14.6979 20 14.5001C20 14.2349 19.8946 13.9805 19.7071 13.793C19.5196 13.6054 19.2652 13.5001 19 13.5001ZM19 17.5001C18.8022 17.5001 18.6089 17.5587 18.4444 17.6686C18.28 17.7785 18.1518 17.9347 18.0761 18.1174C18.0004 18.3001 17.9806 18.5012 18.0192 18.6952C18.0578 18.8892 18.153 19.0673 18.2929 19.2072C18.4327 19.3471 18.6109 19.4423 18.8049 19.4809C18.9989 19.5195 19.2 19.4997 19.3827 19.424C19.5654 19.3483 19.7216 19.2201 19.8315 19.0557C19.9414 18.8912 20 18.6979 20 18.5001C20 18.2349 19.8946 17.9805 19.7071 17.793C19.5196 17.6054 19.2652 17.5001 19 17.5001ZM19 9.50009C18.8022 9.50009 18.6089 9.55874 18.4444 9.66862C18.28 9.7785 18.1518 9.93468 18.0761 10.1174C18.0004 10.3001 17.9806 10.5012 18.0192 10.6952C18.0578 10.8892 18.153 11.0673 18.2929 11.2072C18.4327 11.3471 18.6109 11.4423 18.8049 11.4809C18.9989 11.5195 19.2 11.4997 19.3827 11.424C19.5654 11.3483 19.7216 11.2201 19.8315 11.0557C19.9414 10.8912 20 10.6979 20 10.5001C20 10.2349 19.8946 9.98052 19.7071 9.79298C19.5196 9.60545 19.2652 9.50009 19 9.50009Z" fill="#404955"/>
</g>
<defs>
<clipPath id="clip0_1_1562">
<rect width="24" height="24" fill="white" transform="translate(0 0.500092)"/>
</clipPath>
</defs>
</svg>
