<svg width="24" height="25" viewBox="0 0 24 25" fill="none" xmlns="http://www.w3.org/2000/svg">
    <g clip-path="url(#clip0_52_1967)">
        <path d="M20.0014 12.5001C19.3879 12.5 18.7827 12.6412 18.2326 12.9127C17.6825 13.1843 17.2023 13.579 16.8294 14.0661L16.7594 14.0361C17.0344 13.1841 17.0756 12.2739 16.8788 11.4005C16.6819 10.5272 16.2541 9.72271 15.6401 9.07113C15.0262 8.41956 14.2485 7.94478 13.3884 7.6964C12.5282 7.44801 11.6172 7.43512 10.7504 7.65908L10.6594 7.48708C11.3858 6.8408 11.8515 5.95181 11.9694 4.98672C12.0873 4.02163 11.8491 3.04667 11.2996 2.24458C10.7501 1.44249 9.92701 0.868306 8.9845 0.629648C8.04198 0.39099 7.04478 0.504236 6.17978 0.948162C5.31478 1.39209 4.64135 2.13622 4.28571 3.04111C3.93007 3.94599 3.91663 4.94951 4.2479 5.8636C4.57917 6.77769 5.23242 7.5396 6.08521 8.00654C6.93801 8.47348 7.93182 8.6134 8.88039 8.40008L8.95339 8.53708C7.95345 9.3044 7.28078 10.4216 7.07044 11.6643C6.8601 12.9071 7.12765 14.1834 7.81939 15.2371L5.93439 17.0001C5.08236 16.5293 4.08791 16.3854 3.13738 16.5954C2.18686 16.8053 1.34551 17.3546 0.770989 18.1404C0.196469 18.9262 -0.0717874 19.8946 0.0164896 20.864C0.104767 21.8334 0.543518 22.7374 1.25052 23.4065C1.95753 24.0756 2.88427 24.4639 3.85708 24.4987C4.82988 24.5335 5.78199 24.2123 6.53498 23.5954C7.28797 22.9785 7.79016 22.1082 7.94745 21.1476C8.10473 20.1869 7.90632 19.2019 7.38939 18.3771L9.22739 16.6591C10.2369 17.3338 11.4576 17.6176 12.6612 17.4572C13.8648 17.2969 14.9687 16.7035 15.7664 15.7881L16.0454 15.9071C15.9243 16.7145 16.0533 17.5397 16.4149 18.2717C16.7766 19.0037 17.3535 19.6076 18.0684 20.0021C18.7832 20.3966 19.6017 20.563 20.4138 20.4787C21.2259 20.3945 21.9928 20.0638 22.6115 19.531C23.2302 18.9982 23.671 18.2888 23.8747 17.4981C24.0784 16.7075 24.0353 15.8734 23.7511 15.108C23.467 14.3425 22.9554 13.6824 22.2851 13.2162C21.6148 12.75 20.8179 12.5001 20.0014 12.5001ZM6.00139 4.50008C6.00139 4.10451 6.11869 3.71783 6.33845 3.38894C6.55822 3.06004 6.87057 2.80369 7.23602 2.65232C7.60148 2.50094 8.00361 2.46134 8.39157 2.53851C8.77954 2.61568 9.1359 2.80616 9.41561 3.08586C9.69531 3.36557 9.88579 3.72193 9.96296 4.1099C10.0401 4.49786 10.0005 4.89999 9.84915 5.26544C9.69778 5.6309 9.44143 5.94325 9.11253 6.16302C8.78363 6.38278 8.39696 6.50008 8.00139 6.50008C7.47096 6.50008 6.96225 6.28936 6.58718 5.91429C6.21211 5.53922 6.00139 5.03051 6.00139 4.50008ZM4.00139 22.5001C3.60583 22.5001 3.21915 22.3828 2.89025 22.163C2.56135 21.9433 2.30501 21.6309 2.15363 21.2654C2.00226 20.9 1.96265 20.4979 2.03982 20.1099C2.11699 19.7219 2.30747 19.3656 2.58718 19.0859C2.86688 18.8062 3.22325 18.6157 3.61121 18.5385C3.99917 18.4613 4.40131 18.5009 4.76676 18.6523C5.13221 18.8037 5.44457 19.06 5.66433 19.3889C5.88409 19.7178 6.00139 20.1045 6.00139 20.5001C6.00139 21.0305 5.79068 21.5392 5.41561 21.9143C5.04053 22.2894 4.53182 22.5001 4.00139 22.5001ZM12.0014 15.5001C11.3521 15.4988 10.7207 15.2869 10.2021 14.8962C9.68349 14.5055 9.30564 13.9571 9.1253 13.3333C8.94495 12.7096 8.97185 12.0441 9.20195 11.4369C9.43206 10.8298 9.85294 10.3136 10.4014 9.96608L10.8084 9.74908C11.2174 9.57118 11.6608 9.48671 12.1065 9.5018C12.5523 9.51688 12.989 9.63116 13.385 9.8363C13.781 10.0414 14.1263 10.3323 14.3957 10.6877C14.6651 11.0431 14.8519 11.454 14.9425 11.8907C15.0331 12.3274 15.0252 12.7788 14.9194 13.212C14.8135 13.6452 14.6124 14.0494 14.3307 14.3952C14.049 14.7409 13.6937 15.0195 13.2908 15.2106C12.8878 15.4017 12.4474 15.5006 12.0014 15.5001ZM20.0014 18.5001C19.6058 18.5001 19.2192 18.3828 18.8903 18.163C18.5614 17.9433 18.305 17.6309 18.1536 17.2654C18.0023 16.9 17.9627 16.4979 18.0398 16.1099C18.117 15.7219 18.3075 15.3656 18.5872 15.0859C18.8669 14.8062 19.2232 14.6157 19.6112 14.5385C19.9992 14.4613 20.4013 14.5009 20.7668 14.6523C21.1322 14.8037 21.4446 15.06 21.6643 15.3889C21.8841 15.7178 22.0014 16.1045 22.0014 16.5001C22.0014 17.0305 21.7907 17.5392 21.4156 17.9143C21.0405 18.2894 20.5318 18.5001 20.0014 18.5001Z"
              fill="#404955"/>
    </g>
    <defs>
        <clipPath id="clip0_52_1967">
            <rect width="24" height="24" fill="white" transform="translate(0 0.5)"/>
        </clipPath>
    </defs>
</svg>
